<svg width="476.719" height="106.31299999999999" xmlns="http://www.w3.org/2000/svg">

 <g>
  <title>Layer 1</title>
  <g id="svg_1">
   <path id="svg_2" fill="#ffffff" d="m229.813,29.47879l0,-3.182l-3.179,0l0,-3.188l3.179,0l0,3.181l3.182,0l0,3.182l-3.182,0.007zm-6.361,0l0,-3.182l3.183,0l0,3.182l-3.183,0zm-19.081,0l0,-12.723l12.719,0l0,12.723l-12.719,0zm3.178,-3.182l6.36,0l0,-6.361l-6.36,0l0,6.361zm-94.044,3.1a1.34,1.34 0 0 1 -1.341,-1.339l0,-5.578a1.339,1.339 0 0 1 2.679,0l0,4.237l33.9,0l0,-4.238a1.337,1.337 0 0 1 2.674,0l0,5.579a1.339,1.339 0 0 1 -1.336,1.338l-36.576,0.001zm274.229,-0.159a14.839,14.839 0 0 1 -4.96,-2.61a16.5,16.5 0 0 1 -6.119,-12.936l0,-9.309a0.492,0.492 0 0 1 0.488,-0.491c7.166,0 10.325,-3.689 10.357,-3.726a0.5,0.5 0 0 1 0.748,0c0.028,0.036 3.222,3.726 10.354,3.726a0.488,0.488 0 0 1 0.488,0.489l0,9.3a16.5,16.5 0 0 1 -6.116,12.935a14.941,14.941 0 0 1 -4.962,2.611a0.69,0.69 0 0 1 -0.142,0.022a0.6,0.6 0 0 1 -0.173,-0.021l0.037,0.01zm-0.458,-17.664a2.507,2.507 0 0 0 -1.537,2.25a2.471,2.471 0 0 0 0.159,0.951c0.116,0.352 0.689,2.357 0.522,7.163a0.484,0.484 0 0 0 0.135,0.351a0.492,0.492 0 0 0 0.34,0.153l0.016,0a0.491,0.491 0 0 0 0.487,-0.471c0.166,-4.849 -0.4,-6.971 -0.585,-7.538a1.5,1.5 0 0 1 -0.1,-0.589a1.54,1.54 0 0 1 0.938,-1.375a1.507,1.507 0 0 1 0.589,-0.119a1.525,1.525 0 0 1 1.406,0.931a5.49,5.49 0 0 1 0.221,0.665a19.8,19.8 0 0 1 0.5,4.549a0.483,0.483 0 0 0 0.485,0.474l0.014,0l0.012,0.015a0.488,0.488 0 0 0 0.341,-0.152a0.481,0.481 0 0 0 0.132,-0.349a21.534,21.534 0 0 0 -0.527,-4.777a5.214,5.214 0 0 0 -0.268,-0.8a2.51,2.51 0 0 0 -3.273,-1.335l-0.007,0.003zm0.766,1.848a0.488,0.488 0 0 0 -0.264,0.636c0,0.02 0.746,1.922 0.54,7.866a0.5,0.5 0 0 0 0.131,0.352a0.485,0.485 0 0 0 0.341,0.156l0.013,0a0.487,0.487 0 0 0 0.489,-0.47c0.217,-6.236 -0.58,-8.2 -0.613,-8.279a0.486,0.486 0 0 0 -0.635,-0.26l-0.002,-0.001zm-2.4,-3.58a5.45,5.45 0 0 0 -1.681,5.515c0.006,0.026 0.02,0.06 0.032,0.106a20.582,20.582 0 0 1 0.465,5.975a0.493,0.493 0 0 0 0.472,0.506l0.02,0a0.489,0.489 0 0 0 0.488,-0.474l0,0.011a20.23,20.23 0 0 0 -0.513,-6.3l-0.018,-0.06a4.447,4.447 0 0 1 -0.152,-1.273l0,0a4.277,4.277 0 0 1 1.451,-3.2a0.486,0.486 0 0 0 0.119,-0.676a0.493,0.493 0 0 0 -0.313,-0.205a0.555,0.555 0 0 0 -0.085,-0.008a0.5,0.5 0 0 0 -0.317,0.1l0.032,-0.017zm4.67,10.145l0,0.111c0,0.162 0,0.308 0.007,0.449s0,0.268 0,0.419a0.486,0.486 0 0 0 0.142,0.346a0.48,0.48 0 0 0 0.346,0.141l0,-0.014a0.492,0.492 0 0 0 0.488,-0.488l0,-0.964a0.488,0.488 0 0 0 -0.486,-0.489l0,0a0.5,0.5 0 0 0 -0.546,0.491l0.049,-0.002zm1.187,-7.5a6.935,6.935 0 0 1 0.427,1.426l0,0a28.015,28.015 0 0 1 0.334,6.549a0.5,0.5 0 0 0 0.135,0.351a0.483,0.483 0 0 0 0.343,0.152l0.018,0a0.484,0.484 0 0 0 0.484,-0.471a30.256,30.256 0 0 0 -0.352,-6.768a7.912,7.912 0 0 0 -0.487,-1.615a4.413,4.413 0 0 0 -4.034,-2.853a4.531,4.531 0 0 0 -0.971,0.1a0.5,0.5 0 0 0 -0.308,0.215a0.49,0.49 0 0 0 0.515,0.739a3.349,3.349 0 0 1 3.9,2.165l-0.004,0.01zm-5.686,-4.4a6.255,6.255 0 0 0 -3.846,5.716a6.166,6.166 0 0 0 0.239,1.755a7.942,7.942 0 0 1 0.21,0.891a29.729,29.729 0 0 1 0.088,4a0.483,0.483 0 0 0 0.137,0.349a0.466,0.466 0 0 0 0.341,0.149l0.011,0a0.487,0.487 0 0 0 0.484,-0.475a28.774,28.774 0 0 0 -0.091,-4.164a8.071,8.071 0 0 0 -0.232,-1.019a5.121,5.121 0 0 1 -0.2,-1.479a5.265,5.265 0 0 1 5.479,-5.223a5.975,5.975 0 0 1 4.894,3.809a9.228,9.228 0 0 1 0.363,1.494a22.876,22.876 0 0 1 0.077,4.04l-0.032,1.065a0.494,0.494 0 0 0 0.475,0.5l0.014,0a0.488,0.488 0 0 0 0.487,-0.476l0.03,-1.053l-0.007,-0.012a23.079,23.079 0 0 0 -0.093,-4.228a9.936,9.936 0 0 0 -0.4,-1.647a6.921,6.921 0 0 0 -5.78,-4.472l-0.248,0a6.2,6.2 0 0 0 -2.406,0.486l0.006,-0.006zm-3.644,0.337a7.338,7.338 0 0 0 -2.093,5.379l0,0a12.107,12.107 0 0 0 0.5,3.881a0.488,0.488 0 1 0 0.934,-0.278a11.177,11.177 0 0 1 -0.464,-3.579a6.461,6.461 0 0 1 1.807,-4.715a0.488,0.488 0 1 0 -0.684,-0.694l0,0.006zm12.512,2.708a12.26,12.26 0 0 1 1,3.527a0.5,0.5 0 0 0 0.488,0.447l0.046,0l0,-0.014a0.48,0.48 0 0 0 0.329,-0.172a0.487,0.487 0 0 0 0.108,-0.356a12.963,12.963 0 0 0 -1.067,-3.815a7.973,7.973 0 0 0 -10.422,-4.255a6.052,6.052 0 0 0 -1.112,0.653c-0.111,0.078 -0.226,0.157 -0.343,0.229a0.49,0.49 0 0 0 0.035,0.857a0.5,0.5 0 0 0 0.5,-0.039c0.123,-0.079 0.243,-0.164 0.364,-0.246a5.133,5.133 0 0 1 0.932,-0.556a7.008,7.008 0 0 1 9.176,3.742l-0.034,-0.002zm-113.47,18.081a16.131,16.131 0 0 1 -4.072,-2.361a17.743,17.743 0 0 1 -6.546,-13.921l0,-8.59a0.642,0.642 0 0 1 0.559,-0.632a22.693,22.693 0 0 0 9.933,-3.6a0.638,0.638 0 0 1 0.718,0a22.681,22.681 0 0 0 9.936,3.6a0.635,0.635 0 0 1 0.559,0.632l0,8.589a17.727,17.727 0 0 1 -6.544,13.919a16.04,16.04 0 0 1 -4.075,2.364a0.636,0.636 0 0 1 -0.463,0l-0.005,0zm-0.069,-26.834a19.164,19.164 0 0 1 -8.386,3.036a0.539,0.539 0 0 0 -0.473,0.532l0,7.249a14.959,14.959 0 0 0 5.521,11.743a13.554,13.554 0 0 0 3.436,2a0.532,0.532 0 0 0 0.394,0a13.64,13.64 0 0 0 3.438,-2a14.954,14.954 0 0 0 5.524,-11.742l0,-7.25a0.533,0.533 0 0 0 -0.476,-0.531a19.172,19.172 0 0 1 -8.382,-3.036a0.539,0.539 0 0 0 -0.6,0l0.004,-0.001zm-279.4,26.281a1.742,1.742 0 0 1 -1.74,-1.739l0,-24.334a1.727,1.727 0 0 1 1.732,-1.736l34.777,0a1.735,1.735 0 0 1 1.734,1.737l0,24.334a1.743,1.743 0 0 1 -1.74,1.739l-34.763,-0.001zm0.636,-2.625l33.27,0l0,-13.672l-33.27,0l0,13.672zm0,-19.106l33.27,0l0,-3.707l-33.27,0l0,3.707zm217.893,19.36l0,-3.18l3.182,0l0,3.179l-3.182,0.001zm-124.2,-1.817a2.953,2.953 0 0 1 -1.01,-0.679a2.851,2.851 0 0 1 -0.622,-0.993a3.418,3.418 0 0 1 0,-2.36a2.813,2.813 0 0 1 0.62,-0.994a2.96,2.96 0 0 1 1.013,-0.685a3.715,3.715 0 0 1 2.721,0a3.037,3.037 0 0 1 1,0.684a2.994,2.994 0 0 1 0.625,0.993a3.259,3.259 0 0 1 0.218,1.182a3.389,3.389 0 0 1 -0.212,1.182a2.908,2.908 0 0 1 -0.621,0.994a2.975,2.975 0 0 1 -1.009,0.678a3.825,3.825 0 0 1 -2.726,0l0.003,-0.002zm0.833,-4.3a1.205,1.205 0 0 0 -0.427,0.318a1.488,1.488 0 0 0 -0.273,0.5a1.892,1.892 0 0 0 -0.106,0.634a1.668,1.668 0 0 0 0.379,1.136a1.23,1.23 0 0 0 0.961,0.428a1.185,1.185 0 0 0 0.522,-0.114a1.288,1.288 0 0 0 0.417,-0.319a1.562,1.562 0 0 0 0.28,-0.5a1.891,1.891 0 0 0 0.1,-0.634a1.642,1.642 0 0 0 -0.383,-1.133a1.2,1.2 0 0 0 -0.949,-0.429a1.23,1.23 0 0 0 -0.6,0.118l0.079,-0.005zm-5.432,4.469a1.465,1.465 0 0 1 -0.528,-0.272a1.266,1.266 0 0 1 -0.36,-0.5a1.875,1.875 0 0 1 -0.13,-0.743l0,-3.117l-0.761,0l0,-1.381l0.761,0l0,-1.9l1.825,0l0,1.9l1.22,0l0,1.381l-1.22,0l0,2.5a0.532,0.532 0 0 0 0.154,0.43a0.578,0.578 0 0 0 0.381,0.13a1.339,1.339 0 0 0 0.411,-0.069a3.134,3.134 0 0 0 0.387,-0.149l0.342,1.451a7.385,7.385 0 0 1 -0.856,0.294a3.525,3.525 0 0 1 -0.979,0.139a2.336,2.336 0 0 1 -0.705,-0.082l0.058,-0.012zm-10.619,-0.147a2.683,2.683 0 0 1 -0.9,-0.658a3.064,3.064 0 0 1 -0.587,-0.984a3.532,3.532 0 0 1 -0.211,-1.236a3.834,3.834 0 0 1 0.192,-1.219a3,3 0 0 1 0.546,-0.989a2.606,2.606 0 0 1 0.838,-0.654a2.367,2.367 0 0 1 1.067,-0.239a2.207,2.207 0 0 1 1.13,0.3a2.013,2.013 0 0 1 0.787,0.8l0,-3.319l1.826,0l0,6.274a0.409,0.409 0 0 0 0.1,0.379a0.427,0.427 0 0 0 0.368,0.135l0,1.54a3.893,3.893 0 0 1 -0.5,0.075c-0.14,0.012 -0.269,0.019 -0.382,0.019c-0.638,-0.016 -1,-0.271 -1.094,-0.767l-0.033,-0.318a2.119,2.119 0 0 1 -0.869,0.833a2.5,2.5 0 0 1 -1.151,0.274a2.749,2.749 0 0 1 -1.126,-0.241l-0.001,-0.005zm0.993,-4.3a1.363,1.363 0 0 0 -0.428,0.347a1.5,1.5 0 0 0 -0.277,0.5a1.761,1.761 0 0 0 -0.094,0.6a1.583,1.583 0 0 0 0.4,1.108a1.346,1.346 0 0 0 1.038,0.433a1.3,1.3 0 0 0 0.718,-0.223a1.514,1.514 0 0 0 0.535,-0.613l0,-1.252a1.612,1.612 0 0 0 -0.552,-0.746a1.288,1.288 0 0 0 -0.794,-0.293a1.1,1.1 0 0 0 -0.58,0.135l0.034,0.004zm-7.723,4.287a3.079,3.079 0 0 1 -1.016,-0.666a2.847,2.847 0 0 1 -0.63,-0.976a3.141,3.141 0 0 1 -0.221,-1.156a3.439,3.439 0 0 1 0.218,-1.227a2.975,2.975 0 0 1 0.627,-1.01a2.937,2.937 0 0 1 1.013,-0.684a3.8,3.8 0 0 1 2.719,0a3,3 0 0 1 1,0.68a2.937,2.937 0 0 1 0.623,0.985a3.323,3.323 0 0 1 0.211,1.174a2.41,2.41 0 0 1 -0.015,0.314a1.75,1.75 0 0 1 -0.032,0.267l-4.428,0a1.24,1.24 0 0 0 0.438,0.916a1.4,1.4 0 0 0 0.9,0.316a1.624,1.624 0 0 0 0.771,-0.191a1,1 0 0 0 0.5,-0.524l1.551,0.434a2.773,2.773 0 0 1 -1.095,1.15a3.376,3.376 0 0 1 -1.778,0.449a3.525,3.525 0 0 1 -1.365,-0.251l0.009,0zm0.444,-4.324a1.43,1.43 0 0 0 -0.4,0.9l2.577,0a1.373,1.373 0 0 0 -0.412,-0.9a1.332,1.332 0 0 0 -1.762,0l-0.003,0zm-22.128,4.324a3.032,3.032 0 0 1 -1.015,-0.666a2.847,2.847 0 0 1 -0.634,-0.977a3.138,3.138 0 0 1 -0.216,-1.155a3.48,3.48 0 0 1 0.217,-1.226a2.9,2.9 0 0 1 1.639,-1.693a3.806,3.806 0 0 1 2.721,0a3.027,3.027 0 0 1 1.006,0.679a2.941,2.941 0 0 1 0.619,0.986a3.3,3.3 0 0 1 0.21,1.174a3.043,3.043 0 0 1 -0.012,0.313c-0.008,0.089 -0.019,0.179 -0.034,0.268l-4.425,0a1.215,1.215 0 0 0 0.439,0.917a1.4,1.4 0 0 0 0.894,0.314a1.637,1.637 0 0 0 0.773,-0.191a1,1 0 0 0 0.5,-0.523l1.549,0.433a2.769,2.769 0 0 1 -1.1,1.151a3.394,3.394 0 0 1 -1.776,0.446a3.529,3.529 0 0 1 -1.354,-0.25l-0.001,0zm0.446,-4.324a1.405,1.405 0 0 0 -0.408,0.9l2.58,0a1.353,1.353 0 0 0 -0.409,-0.9a1.417,1.417 0 0 0 -1.828,0l0.065,0zm-8.135,4.337a2.64,2.64 0 0 1 -0.9,-0.659a3.072,3.072 0 0 1 -0.585,-0.983a3.458,3.458 0 0 1 -0.21,-1.235a3.762,3.762 0 0 1 0.188,-1.222a3.041,3.041 0 0 1 0.547,-0.987a2.584,2.584 0 0 1 0.843,-0.653a2.354,2.354 0 0 1 1.063,-0.237a2.218,2.218 0 0 1 1.132,0.293a2.066,2.066 0 0 1 0.786,0.8l0,-3.318l1.825,0l0,6.274a0.554,0.554 0 0 0 0.1,0.38a0.568,0.568 0 0 0 0.364,0.131l0,1.54a3.85,3.85 0 0 1 -0.5,0.076c-0.142,0.011 -0.268,0.019 -0.382,0.019c-0.636,-0.017 -1,-0.27 -1.095,-0.767l-0.033,-0.318a2.115,2.115 0 0 1 -0.865,0.832a2.512,2.512 0 0 1 -1.153,0.278a2.757,2.757 0 0 1 -1.147,-0.243l0.022,-0.001zm0.992,-4.3a1.366,1.366 0 0 0 -0.428,0.348a1.518,1.518 0 0 0 -0.276,0.5a1.843,1.843 0 0 0 -0.1,0.6a1.555,1.555 0 0 0 0.4,1.107a1.342,1.342 0 0 0 1.034,0.434a1.285,1.285 0 0 0 0.72,-0.222a1.515,1.515 0 0 0 0.536,-0.614l0,-1.238a1.657,1.657 0 0 0 -0.555,-0.746a1.286,1.286 0 0 0 -0.794,-0.292a1.1,1.1 0 0 0 -0.6,0.132l0.063,-0.009zm272.61,4.4a1.67,1.67 0 0 1 -0.521,-0.313a1.519,1.519 0 0 1 -0.349,-0.466a1.4,1.4 0 0 1 0,-1.146a1.459,1.459 0 0 1 0.349,-0.476a1.644,1.644 0 0 1 0.521,-0.314a1.8,1.8 0 0 1 1.271,0a1.682,1.682 0 0 1 0.52,0.314a1.4,1.4 0 0 1 0.348,0.475a1.424,1.424 0 0 1 0,1.145a1.414,1.414 0 0 1 -0.349,0.465a1.663,1.663 0 0 1 -0.52,0.314a1.848,1.848 0 0 1 -1.272,0l0.002,0.002zm0.231,-1.869a0.836,0.836 0 0 0 -0.165,0.52a0.8,0.8 0 0 0 0.164,0.511a0.5,0.5 0 0 0 0.813,0a0.863,0.863 0 0 0 -0.01,-1.027a0.482,0.482 0 0 0 -0.8,0l-0.002,-0.004zm-9.322,1.768a2.36,2.36 0 0 1 -0.783,-0.6a2.839,2.839 0 0 1 -0.526,-0.913a3.6,3.6 0 0 1 0,-2.31a2.817,2.817 0 0 1 0.524,-0.912a2.4,2.4 0 0 1 0.784,-0.6a2.218,2.218 0 0 1 0.981,-0.219a2.29,2.29 0 0 1 0.99,0.216a2.45,2.45 0 0 1 0.789,0.606a2.912,2.912 0 0 1 0.521,0.912a3.6,3.6 0 0 1 0,2.312a2.855,2.855 0 0 1 -0.525,0.913a2.288,2.288 0 0 1 -1.777,0.813a2.272,2.272 0 0 1 -0.969,-0.215l-0.009,-0.003zm0.284,-3.744a2.322,2.322 0 0 0 0,2.152a0.788,0.788 0 0 0 1.379,0a2.32,2.32 0 0 0 0,-2.153a0.781,0.781 0 0 0 -1.38,0l0.001,0.001zm-6.126,3.744a2.382,2.382 0 0 1 -0.782,-0.6a2.862,2.862 0 0 1 -0.526,-0.914a3.624,3.624 0 0 1 0,-2.31a2.932,2.932 0 0 1 0.524,-0.914a2.476,2.476 0 0 1 0.784,-0.6a2.336,2.336 0 0 1 1.972,0a2.375,2.375 0 0 1 0.791,0.6a2.859,2.859 0 0 1 0.522,0.914a3.6,3.6 0 0 1 0,2.31a2.881,2.881 0 0 1 -0.523,0.913a2.339,2.339 0 0 1 -2.762,0.6l0,0.001zm0.291,-3.744a2.3,2.3 0 0 0 0,2.153a0.8,0.8 0 0 0 0.694,0.406a0.786,0.786 0 0 0 0.684,-0.406a2.318,2.318 0 0 0 0,-2.153a0.82,0.82 0 0 0 -1.424,0l0.046,0zm10.445,3.327l2.682,-3.08l2.431,-3.224l0.688,0.609l-2.6,3l-2.53,3.306l-0.671,-0.611zm11.312,0.552a5.44,5.44 0 0 1 -0.753,-0.167a6.017,6.017 0 0 1 -0.723,-0.263a3.842,3.842 0 0 1 -0.65,-0.353l0.687,-1.36a1.591,1.591 0 0 0 0.26,0.184a3.816,3.816 0 0 0 0.51,0.264a4.906,4.906 0 0 0 0.684,0.239a2.9,2.9 0 0 0 0.771,0.1c0.55,0 0.828,-0.167 0.828,-0.5a0.423,0.423 0 0 0 -0.123,-0.315a1.21,1.21 0 0 0 -0.342,-0.223a4.929,4.929 0 0 0 -0.515,-0.185c-0.2,-0.058 -0.412,-0.122 -0.648,-0.19a5.675,5.675 0 0 1 -0.806,-0.309a2.262,2.262 0 0 1 -0.57,-0.386a1.347,1.347 0 0 1 -0.334,-0.5a1.83,1.83 0 0 1 -0.111,-0.664a2.1,2.1 0 0 1 0.2,-0.946a2.028,2.028 0 0 1 0.544,-0.688a2.38,2.38 0 0 1 0.791,-0.422a3.146,3.146 0 0 1 0.951,-0.143a3.712,3.712 0 0 1 0.7,0.065a4.875,4.875 0 0 1 0.65,0.173a5.753,5.753 0 0 1 0.587,0.236c0.185,0.09 0.349,0.177 0.494,0.267l-0.673,1.293a1.673,1.673 0 0 0 -0.212,-0.145a4.214,4.214 0 0 0 -0.429,-0.219a4.1,4.1 0 0 0 -0.562,-0.2a2.164,2.164 0 0 0 -0.606,-0.088a1.106,1.106 0 0 0 -0.613,0.145a0.48,0.48 0 0 0 -0.214,0.417a0.429,0.429 0 0 0 0.1,0.284a0.878,0.878 0 0 0 0.269,0.2a2.8,2.8 0 0 0 0.438,0.167l0.605,0.17a7.919,7.919 0 0 1 0.875,0.291a2.351,2.351 0 0 1 0.667,0.391a1.52,1.52 0 0 1 0.424,0.57a1.93,1.93 0 0 1 0.145,0.8a1.966,1.966 0 0 1 -0.212,0.968a1.761,1.761 0 0 1 -0.563,0.635a2.294,2.294 0 0 1 -0.811,0.353a4.1,4.1 0 0 1 -0.95,0.109a5.486,5.486 0 0 1 -0.79,-0.051l0.03,-0.004zm-263.023,-0.311a3.9,3.9 0 0 1 -1.211,-0.95a4.537,4.537 0 0 1 -0.79,-1.345a4.2,4.2 0 0 1 -0.024,-2.984a3.941,3.941 0 0 1 0.766,-1.293a3.9,3.9 0 0 1 1.227,-0.923a3.69,3.69 0 0 1 1.648,-0.354a3.535,3.535 0 0 1 1.88,0.49a3.122,3.122 0 0 1 1.188,1.276l-1.437,1a1.646,1.646 0 0 0 -0.32,-0.531a1.8,1.8 0 0 0 -0.421,-0.339a1.555,1.555 0 0 0 -0.476,-0.184a2.421,2.421 0 0 0 -0.464,-0.05a1.682,1.682 0 0 0 -0.866,0.216a1.878,1.878 0 0 0 -0.6,0.559a2.508,2.508 0 0 0 -0.361,0.775a3.286,3.286 0 0 0 -0.122,0.877a2.936,2.936 0 0 0 0.146,0.924a2.577,2.577 0 0 0 0.4,0.787a1.9,1.9 0 0 0 0.623,0.543a1.664,1.664 0 0 0 0.808,0.2a1.947,1.947 0 0 0 0.951,-0.256a1.5,1.5 0 0 0 0.411,-0.341a1.8,1.8 0 0 0 0.3,-0.518l1.536,0.9a2.4,2.4 0 0 1 -0.529,0.8a3.251,3.251 0 0 1 -0.792,0.6a4.188,4.188 0 0 1 -0.94,0.363a4.009,4.009 0 0 1 -0.979,0.127a3.333,3.333 0 0 1 -1.57,-0.362l0.018,-0.007zm354.544,0.054a3.354,3.354 0 0 1 -1.013,-0.775a3.521,3.521 0 0 1 -0.655,-1.1a3.633,3.633 0 0 1 -0.234,-1.273a3.549,3.549 0 0 1 0.244,-1.285a3.414,3.414 0 0 1 0.672,-1.087a3.284,3.284 0 0 1 1.03,-0.75a3.005,3.005 0 0 1 1.3,-0.281a2.914,2.914 0 0 1 1.311,0.294a3.247,3.247 0 0 1 1.012,0.78a3.444,3.444 0 0 1 0.65,1.1a3.547,3.547 0 0 1 -0.684,3.625a3.272,3.272 0 0 1 -1.021,0.757a3.173,3.173 0 0 1 -2.63,0l0.018,-0.005zm0.61,-4.986a1.645,1.645 0 0 0 -0.51,0.459a2.081,2.081 0 0 0 -0.3,0.654a2.664,2.664 0 0 0 -0.106,0.744a2.579,2.579 0 0 0 0.108,0.757a2.175,2.175 0 0 0 0.313,0.65a1.547,1.547 0 0 0 0.514,0.457a1.457,1.457 0 0 0 0.708,0.169a1.357,1.357 0 0 0 0.711,-0.179a1.669,1.669 0 0 0 0.51,-0.476a1.993,1.993 0 0 0 0.3,-0.654a2.918,2.918 0 0 0 0.1,-0.746a2.627,2.627 0 0 0 -0.108,-0.754a2.115,2.115 0 0 0 -0.319,-0.646a1.581,1.581 0 0 0 -0.512,-0.449a1.464,1.464 0 0 0 -0.7,-0.161a1.38,1.38 0 0 0 -0.771,0.179l0.062,-0.004zm-74,5a2.541,2.541 0 0 1 -0.925,-0.735a3.04,3.04 0 0 1 -0.525,-1.071a4.784,4.784 0 0 1 -0.166,-1.272l0,-3.451l1.56,0l0,3.451a3.431,3.431 0 0 0 0.077,0.74a1.877,1.877 0 0 0 0.246,0.629a1.313,1.313 0 0 0 0.443,0.438a1.474,1.474 0 0 0 1.344,-0.005a1.364,1.364 0 0 0 0.445,-0.441a1.936,1.936 0 0 0 0.242,-0.632a3.39,3.39 0 0 0 0.073,-0.729l0,-3.451l1.6,0l0,3.451a4.663,4.663 0 0 1 -0.174,1.313a3.013,3.013 0 0 1 -0.543,1.063a2.55,2.55 0 0 1 -0.931,0.72a3.211,3.211 0 0 1 -1.345,0.261a3.164,3.164 0 0 1 -1.39,-0.271l-0.031,-0.008zm91.807,-0.019a3.3,3.3 0 0 1 -0.989,-0.76a3.661,3.661 0 0 1 -0.667,-1.106a3.6,3.6 0 0 1 0,-2.629a3.212,3.212 0 0 1 4.55,-1.668a2.5,2.5 0 0 1 1.006,1.081l-1.169,0.874a1.605,1.605 0 0 0 -0.6,-0.708a1.572,1.572 0 0 0 -0.856,-0.252a1.36,1.36 0 0 0 -0.651,0.157a1.586,1.586 0 0 0 -0.5,0.438a2.054,2.054 0 0 0 -0.326,0.65a2.706,2.706 0 0 0 -0.117,0.8a2.53,2.53 0 0 0 0.124,0.809a2,2 0 0 0 0.345,0.642a1.582,1.582 0 0 0 0.52,0.424a1.488,1.488 0 0 0 0.668,0.153a1.642,1.642 0 0 0 0.8,-0.206a2.34,2.34 0 0 0 0.715,-0.623l0,-0.229l-1.3,0l0,-1.13l2.6,0l0,3.526l-1.293,0l0,-0.656a2.378,2.378 0 0 1 -0.766,0.534a2.176,2.176 0 0 1 -0.878,0.174a2.673,2.673 0 0 1 -1.193,-0.281l-0.023,-0.014zm-98.492,0a3.312,3.312 0 0 1 -0.986,-0.76a3.669,3.669 0 0 1 -0.921,-2.423a3.531,3.531 0 0 1 0.246,-1.312a3.219,3.219 0 0 1 4.555,-1.668a2.515,2.515 0 0 1 1.007,1.08l-1.17,0.875a1.616,1.616 0 0 0 -0.6,-0.708a1.559,1.559 0 0 0 -0.854,-0.252a1.337,1.337 0 0 0 -0.651,0.157a1.5,1.5 0 0 0 -0.5,0.438a2.019,2.019 0 0 0 -0.329,0.65a2.772,2.772 0 0 0 -0.112,0.8a2.459,2.459 0 0 0 0.123,0.807a1.972,1.972 0 0 0 0.341,0.643a1.579,1.579 0 0 0 0.522,0.423a1.482,1.482 0 0 0 0.666,0.152a1.671,1.671 0 0 0 0.8,-0.206a2.319,2.319 0 0 0 0.712,-0.622l0,-0.229l-1.3,0l0,-1.13l2.595,0l0,3.526l-1.293,0l0,-0.656a2.4,2.4 0 0 1 -0.767,0.534a2.184,2.184 0 0 1 -0.878,0.173a2.64,2.64 0 0 1 -1.27,-0.281l0.064,-0.011zm117.215,0.237l-0.523,-1.511l-2.131,0l-0.512,1.511l-1.653,0l2.6,-6.749l1.261,0l2.586,6.749l-1.628,0zm-2.377,-2.586l1.589,0l-0.781,-2.508l-0.808,2.508zm-8.317,2.586l0,-6.749l2.521,0a3.722,3.722 0 0 1 1.463,0.267a2.924,2.924 0 0 1 1.688,1.792a3.994,3.994 0 0 1 0.214,1.308a3.819,3.819 0 0 1 -0.239,1.391a2.982,2.982 0 0 1 -0.679,1.066a3.081,3.081 0 0 1 -1.062,0.685a3.8,3.8 0 0 1 -1.385,0.241l-2.521,-0.001zm1.561,-1.367l0.961,0a1.8,1.8 0 0 0 0.76,-0.154a1.534,1.534 0 0 0 0.559,-0.421a2,2 0 0 0 0.341,-0.637a2.554,2.554 0 0 0 0.122,-0.8a2.615,2.615 0 0 0 -0.121,-0.814a1.836,1.836 0 0 0 -0.348,-0.633a1.455,1.455 0 0 0 -0.56,-0.4a1.89,1.89 0 0 0 -0.75,-0.144l-0.962,0l-0.002,4.003zm-4.41,1.367l0,-6.749l1.558,0l0,6.749l-1.558,0zm-12.415,0l0,-6.749l4.658,0l0,1.37l-3.1,0l0,1.311l2.662,0l0,1.264l-2.662,0l0,1.438l3.184,0l0,1.367l-4.742,-0.001zm-4.382,0l0,-5.38l-2.062,0l0,-1.37l5.675,0l0,1.37l-2.053,0l0,5.38l-1.56,0zm-10.749,0l-1.359,-2.176l-1.019,0l0,2.176l-1.558,0l0,-6.749l3.042,0a1.959,1.959 0 0 1 0.88,0.2a2.327,2.327 0 0 1 0.7,0.521a2.485,2.485 0 0 1 0.459,0.73a2.156,2.156 0 0 1 0.169,0.829a2.439,2.439 0 0 1 -0.072,0.6a2.332,2.332 0 0 1 -0.225,0.544a2.055,2.055 0 0 1 -0.806,0.811l1.55,2.509l-1.761,0.005zm-2.378,-3.537l1.427,0a0.586,0.586 0 0 0 0.475,-0.259a1.077,1.077 0 0 0 0.2,-0.671a0.944,0.944 0 0 0 -0.229,-0.666a0.674,0.674 0 0 0 -0.5,-0.247l-1.377,0l0.004,1.843zm-7.449,3.537l0,-6.749l2.878,0a1.955,1.955 0 0 1 0.89,0.2a2.321,2.321 0 0 1 0.7,0.522a2.517,2.517 0 0 1 0.455,0.731a2.157,2.157 0 0 1 0.166,0.829a2.263,2.263 0 0 1 -0.157,0.854a2.386,2.386 0 0 1 -0.437,0.732a2.082,2.082 0 0 1 -0.68,0.512a2.007,2.007 0 0 1 -0.883,0.19l-1.369,0l0,2.176l-1.563,0.003zm1.558,-3.537l1.273,0a0.6,0.6 0 0 0 0.477,-0.237a1.075,1.075 0 0 0 0.2,-0.694a1.12,1.12 0 0 0 -0.061,-0.409a0.816,0.816 0 0 0 -0.164,-0.285a0.671,0.671 0 0 0 -0.241,-0.167a0.7,0.7 0 0 0 -0.264,-0.053l-1.217,0l-0.003,1.845zm-45.024,3.537l-0.524,-1.511l-2.1,0l-0.515,1.511l-1.652,0l2.594,-6.749l1.264,0l2.587,6.749l-1.654,0zm-2.377,-2.586l1.589,0l-0.781,-2.508l-0.808,2.508zm-4.259,2.586l-1.359,-2.176l-1.016,0l0,2.176l-1.562,0l0,-6.749l3.042,0a1.992,1.992 0 0 1 0.881,0.2a2.372,2.372 0 0 1 0.7,0.522a2.478,2.478 0 0 1 0.459,0.73a2.194,2.194 0 0 1 0.166,0.829a2.35,2.35 0 0 1 -0.3,1.148a2.013,2.013 0 0 1 -0.348,0.463a2.069,2.069 0 0 1 -0.46,0.347l1.549,2.507l-1.752,0.003zm-2.377,-3.537l1.426,0a0.594,0.594 0 0 0 0.478,-0.259a1.125,1.125 0 0 0 0.2,-0.671a0.948,0.948 0 0 0 -0.229,-0.666a0.666,0.666 0 0 0 -0.494,-0.247l-1.378,0l-0.003,1.843zm-21.056,3.537l0,-6.749l4.658,0l0,1.37l-3.1,0l0,1.311l2.661,0l0,1.264l-2.661,0l0,1.438l3.185,0l0,1.367l-4.743,-0.001zm-32.518,0l0,-1.367l1.351,0l0,-2.424a1,1 0 0 1 -0.269,0.231a3.247,3.247 0 0 1 -0.406,0.218a2.857,2.857 0 0 1 -0.451,0.162a1.7,1.7 0 0 1 -0.414,0.062l0,-1.406a1.1,1.1 0 0 0 0.393,-0.1a4.034,4.034 0 0 0 0.481,-0.252a4.967,4.967 0 0 0 0.429,-0.3a0.9,0.9 0 0 0 0.237,-0.247l1.55,0l0,4.059l1.207,0l0,1.366l-4.108,-0.002zm-210.137,0l0,-5.988l1.826,0l0,5.988l-1.826,0zm-18.992,0l0,-5.988l1.679,0l0,1.21a2.6,2.6 0 0 1 0.8,-0.941a1.921,1.921 0 0 1 1.034,-0.358a2.062,2.062 0 0 1 0.285,0.01l0,1.643a3.435,3.435 0 0 0 -1.193,0.22a1.529,1.529 0 0 0 -0.782,0.612l0,3.593l-1.823,-0.001zm161.782,-1.5l0,-3.183l3.183,0l0,3.183l-3.183,0zm-6.361,0l0,-3.183l3.182,0l0,3.183l-3.182,0zm-77.833,-1.746l-1.782,0a0.43,0.43 0 0 1 -0.316,-0.13a0.443,0.443 0 0 1 -0.132,-0.317l0,-11.82a0.441,0.441 0 0 1 0.446,-0.444l1.783,0a0.443,0.443 0 0 1 0.447,0.444l0,11.821a0.443,0.443 0 0 1 -0.443,0.447l-0.003,-0.001zm-5.576,0a0.222,0.222 0 0 1 -0.221,-0.222l0,-12.269a0.222,0.222 0 0 1 0.219,-0.221l1.341,0a0.232,0.232 0 0 1 0.161,0.065a0.225,0.225 0 0 1 0.063,0.155l0,12.27a0.223,0.223 0 0 1 -0.065,0.158a0.226,0.226 0 0 1 -0.159,0.064l-1.339,0zm-3.568,0a0.222,0.222 0 0 1 -0.221,-0.222l0,-12.269a0.224,0.224 0 0 1 0.222,-0.221l1.34,0a0.225,0.225 0 0 1 0.226,0.221l0,12.269a0.223,0.223 0 0 1 -0.224,0.222l-1.343,0zm-6.019,0a0.447,0.447 0 0 1 -0.448,-0.447l0,-11.821a0.442,0.442 0 0 1 0.447,-0.444l3.568,0a0.443,0.443 0 0 1 0.444,0.445l0,11.82a0.422,0.422 0 0 1 -0.13,0.316a0.438,0.438 0 0 1 -0.313,0.133l-3.568,-0.002zm-3.792,0a0.219,0.219 0 0 1 -0.157,-0.064a0.223,0.223 0 0 1 -0.065,-0.158l0,-12.27a0.219,0.219 0 0 1 0.065,-0.156a0.222,0.222 0 0 1 0.158,-0.064l1.337,0a0.225,0.225 0 0 1 0.227,0.221l0,12.269a0.227,0.227 0 0 1 -0.064,0.158a0.215,0.215 0 0 1 -0.159,0.064l-1.342,0zm-3.567,0l0,0a0.215,0.215 0 0 1 -0.221,-0.222l0,-12.27a0.222,0.222 0 0 1 0.221,-0.221l1.341,0a0.226,0.226 0 0 1 0.157,0.065a0.224,0.224 0 0 1 0.064,0.157l0,12.269a0.212,0.212 0 0 1 -0.063,0.158a0.221,0.221 0 0 1 -0.158,0.065l-1.341,-0.001zm-5.134,0l0,0a0.423,0.423 0 0 1 -0.311,-0.131a0.431,0.431 0 0 1 -0.135,-0.316l0,-11.821a0.442,0.442 0 0 1 0.447,-0.444l2.677,0a0.443,0.443 0 0 1 0.444,0.444l0,11.821a0.446,0.446 0 0 1 -0.444,0.447l-2.678,0zm196.533,-0.775a1.678,1.678 0 0 1 -0.519,-0.314a1.45,1.45 0 0 1 -0.349,-0.47a1.412,1.412 0 0 1 -0.122,-0.577a1.355,1.355 0 0 1 0.123,-0.571a1.507,1.507 0 0 1 0.348,-0.463a1.661,1.661 0 0 1 0.52,-0.313a1.809,1.809 0 0 1 1.271,0a1.742,1.742 0 0 1 0.521,0.313a1.521,1.521 0 0 1 0.346,0.464a1.388,1.388 0 0 1 0,1.146a1.473,1.473 0 0 1 -0.346,0.47a1.716,1.716 0 0 1 -1.156,0.427a1.787,1.787 0 0 1 -0.63,-0.107l-0.007,-0.005zm0.233,-1.868a0.865,0.865 0 0 0 0,1.025a0.483,0.483 0 0 0 0.808,0a0.818,0.818 0 0 0 0.167,-0.516a0.793,0.793 0 0 0 -0.17,-0.515a0.52,0.52 0 0 0 -0.839,0.006l0.034,0zm-88.1,1.208l0,-3.181l3.179,0l0,3.181l-3.179,0zm-6.37,0l0,-3.181l3.183,0l0,3.181l-3.183,0zm59.233,-0.53l-3.432,-4.506a0.495,0.495 0 0 1 0.7,-0.7l2.938,2.486l7.668,-8.065a0.491,0.491 0 0 1 0.7,-0.045l0,0a0.492,0.492 0 0 1 0.047,0.694l-7.89,10.112a0.5,0.5 0 0 1 -0.354,0.169a0.488,0.488 0 0 1 -0.435,-0.141l0.058,-0.004zm-91.6,-0.63a2.983,2.983 0 0 1 -1.01,-0.68a2.873,2.873 0 0 1 -0.617,-0.991a3.365,3.365 0 0 1 0,-2.361a2.877,2.877 0 0 1 0.62,-0.994a3.035,3.035 0 0 1 1.011,-0.684a3.417,3.417 0 0 1 1.362,-0.255a3.381,3.381 0 0 1 1.362,0.255a3,3 0 0 1 1,0.684a2.93,2.93 0 0 1 0.628,0.992a3.287,3.287 0 0 1 0.217,1.183a3.356,3.356 0 0 1 -0.212,1.18a2.921,2.921 0 0 1 -0.622,0.992a2.977,2.977 0 0 1 -1.008,0.681a3.812,3.812 0 0 1 -2.727,0l-0.004,-0.002zm0.834,-4.3a1.256,1.256 0 0 0 -0.423,0.317a1.554,1.554 0 0 0 -0.28,0.5a1.939,1.939 0 0 0 -0.1,0.637a1.65,1.65 0 0 0 0.382,1.133a1.256,1.256 0 0 0 1.479,0.312a1.256,1.256 0 0 0 0.419,-0.317a1.506,1.506 0 0 0 0.277,-0.5a1.941,1.941 0 0 0 0.1,-0.633a1.658,1.658 0 0 0 -0.375,-1.141a1.216,1.216 0 0 0 -0.948,-0.426a1.255,1.255 0 0 0 -0.516,0.121l-0.015,-0.003zm-5.429,4.468a1.4,1.4 0 0 1 -0.53,-0.273a1.254,1.254 0 0 1 -0.361,-0.494a1.937,1.937 0 0 1 -0.128,-0.744l0,-3.125l-0.766,0l0,-1.379l0.766,0l0,-1.9l1.824,0l0,1.9l1.223,0l0,1.379l-1.223,0l0,2.5a0.536,0.536 0 0 0 0.154,0.428a0.564,0.564 0 0 0 0.383,0.135a1.362,1.362 0 0 0 0.411,-0.071a2.927,2.927 0 0 0 0.389,-0.149l0.34,1.448a7.365,7.365 0 0 1 -0.857,0.3a3.465,3.465 0 0 1 -0.978,0.139a2.389,2.389 0 0 1 -0.71,-0.084l0.063,-0.01zm-6.7,-0.159a2.986,2.986 0 0 1 -1.013,-0.667a2.843,2.843 0 0 1 -0.635,-0.976a3.191,3.191 0 0 1 -0.219,-1.157a3.506,3.506 0 0 1 0.219,-1.227a2.92,2.92 0 0 1 0.628,-1.01a2.837,2.837 0 0 1 1.011,-0.685a3.8,3.8 0 0 1 2.719,0a2.99,2.99 0 0 1 1,0.679a2.864,2.864 0 0 1 0.623,0.989a3.236,3.236 0 0 1 0.211,1.174a3.042,3.042 0 0 1 -0.011,0.313a1.634,1.634 0 0 1 -0.036,0.267l-4.422,0a1.222,1.222 0 0 0 0.438,0.917a1.391,1.391 0 0 0 0.895,0.315a1.688,1.688 0 0 0 0.77,-0.192a0.988,0.988 0 0 0 0.493,-0.524l1.555,0.433a2.815,2.815 0 0 1 -1.1,1.152a3.407,3.407 0 0 1 -1.777,0.445a3.511,3.511 0 0 1 -1.38,-0.248l0.031,0.002zm0.444,-4.322a1.413,1.413 0 0 0 -0.4,0.9l2.577,0a1.371,1.371 0 0 0 -0.408,-0.9a1.236,1.236 0 0 0 -0.881,-0.333a1.222,1.222 0 0 0 -0.877,0.334l-0.011,-0.001zm-11.28,4.318a2.988,2.988 0 0 1 -1.008,-0.679a2.9,2.9 0 0 1 -0.622,-0.993a3.378,3.378 0 0 1 0,-2.362a2.88,2.88 0 0 1 0.62,-0.992a3.065,3.065 0 0 1 1.012,-0.684a3.443,3.443 0 0 1 1.362,-0.255a3.327,3.327 0 0 1 1.355,0.255a3.031,3.031 0 0 1 1,0.684a2.94,2.94 0 0 1 0.627,0.992a3.259,3.259 0 0 1 0.218,1.185a3.327,3.327 0 0 1 -0.21,1.179a2.885,2.885 0 0 1 -0.624,0.993a2.958,2.958 0 0 1 -1.007,0.678a3.8,3.8 0 0 1 -2.728,0l0.005,-0.001zm0.833,-4.3a1.276,1.276 0 0 0 -0.422,0.32a1.492,1.492 0 0 0 -0.281,0.5a1.92,1.92 0 0 0 -0.1,0.634a1.656,1.656 0 0 0 0.375,1.13a1.218,1.218 0 0 0 0.96,0.431a1.2,1.2 0 0 0 0.522,-0.116a1.275,1.275 0 0 0 0.417,-0.318a1.5,1.5 0 0 0 0.281,-0.5a1.9,1.9 0 0 0 0.1,-0.631a1.672,1.672 0 0 0 -0.377,-1.142a1.274,1.274 0 0 0 -1.476,-0.312l0.001,0.004zm5.029,4.128a1.565,1.565 0 0 1 -0.429,-1.185l0,-6.832l1.828,0l0,6.089c0,0.456 0.2,0.687 0.594,0.687a1.1,1.1 0 0 0 0.289,-0.045a1.863,1.863 0 0 0 0.3,-0.116l0.24,1.472a3.617,3.617 0 0 1 -0.787,0.252a4.091,4.091 0 0 1 -0.819,0.089a1.673,1.673 0 0 1 -1.21,-0.416l-0.006,0.005zm81.322,0.309l-1.676,-2.68l-1.678,2.68l-2.031,0l2.717,-3.991l-2.808,-4.107l2.031,0l1.769,2.8l1.765,-2.8l2.021,0l-2.806,4.107l2.713,3.991l-2.017,0zm-8.028,0l0,-8.1l1.868,0l0,8.1l-1.868,0zm-7.074,0l0,-8.1l3.456,0a2.361,2.361 0 0 1 1.066,0.241a2.713,2.713 0 0 1 0.833,0.628a2.938,2.938 0 0 1 0.547,0.876a2.588,2.588 0 0 1 0.2,0.993a2.887,2.887 0 0 1 -0.189,1.028a2.932,2.932 0 0 1 -0.525,0.88a2.542,2.542 0 0 1 -0.815,0.614a2.425,2.425 0 0 1 -1.061,0.23l-1.643,0l0,2.612l-1.869,-0.002zm1.871,-4.242l1.528,0a0.723,0.723 0 0 0 0.569,-0.285a1.248,1.248 0 0 0 0.241,-0.833a1.419,1.419 0 0 0 -0.078,-0.49a1,1 0 0 0 -0.2,-0.342a0.732,0.732 0 0 0 -0.282,-0.2a0.937,0.937 0 0 0 -0.32,-0.063l-1.461,0l0.003,2.213zm-83.05,4.242l0,-8.1l4.506,0a1.619,1.619 0 0 1 0.76,0.183a1.9,1.9 0 0 1 0.585,0.476a2.255,2.255 0 0 1 0.212,2.525a1.85,1.85 0 0 1 -0.875,0.775a2.1,2.1 0 0 1 1.1,0.729a2.124,2.124 0 0 1 0.406,1.346a1.819,1.819 0 0 1 -0.218,0.915a1.883,1.883 0 0 1 -0.592,0.642a2.8,2.8 0 0 1 -0.876,0.387a4.273,4.273 0 0 1 -1.062,0.133l-3.946,-0.011zm1.872,-1.585l2.073,0a0.823,0.823 0 0 0 0.6,-0.238a0.834,0.834 0 0 0 0.239,-0.627a0.938,0.938 0 0 0 -0.217,-0.637a0.677,0.677 0 0 0 -0.548,-0.264l-2.153,0l0.006,1.766zm0,-3.239l1.834,0a0.817,0.817 0 0 0 0.549,-0.2a0.8,0.8 0 0 0 0.238,-0.637a0.851,0.851 0 0 0 -0.211,-0.618a0.669,0.669 0 0 0 -0.5,-0.214l-1.9,0l-0.01,1.669zm-83.732,3.685l0.591,-1.481l1.655,0l-1.086,1.806l-1.16,-0.325zm12.2,0.173l0,-1.654l1.824,0l0,1.654l-1.824,0zm133.246,-4.368l0,-12.723l12.726,0l0,12.723l-12.726,0zm3.183,-3.183l6.361,0l0,-6.36l-6.361,0l0,6.36zm-19.082,3.183l0,-12.723l12.721,0l0,12.723l-12.721,0zm3.179,-3.183l6.362,0l0,-6.36l-6.362,0l0,6.36zm-132.484,2.678a2.939,2.939 0 0 1 -1.009,-0.679a2.876,2.876 0 0 1 -0.621,-0.991a3.411,3.411 0 0 1 0,-2.362a2.88,2.88 0 0 1 0.62,-0.992a3.046,3.046 0 0 1 1.012,-0.683a3.73,3.73 0 0 1 2.721,0a3.043,3.043 0 0 1 1,0.686a2.907,2.907 0 0 1 0.626,0.992a3.335,3.335 0 0 1 0,2.362a2.857,2.857 0 0 1 -0.621,0.991a2.95,2.95 0 0 1 -1.008,0.679a3.812,3.812 0 0 1 -2.727,0l0.007,-0.003zm0.832,-4.3a1.248,1.248 0 0 0 -0.422,0.317a1.554,1.554 0 0 0 -0.279,0.5a1.883,1.883 0 0 0 -0.1,0.637a1.665,1.665 0 0 0 0.381,1.133a1.221,1.221 0 0 0 0.961,0.429a1.189,1.189 0 0 0 0.524,-0.117a1.213,1.213 0 0 0 0.412,-0.317a1.477,1.477 0 0 0 0.282,-0.5a1.877,1.877 0 0 0 0.1,-0.632a1.67,1.67 0 0 0 -0.377,-1.142a1.209,1.209 0 0 0 -0.95,-0.426a1.226,1.226 0 0 0 -0.6,0.117l0.068,0.001zm-8.175,4.407a1.945,1.945 0 0 1 -0.655,-0.4a1.917,1.917 0 0 1 -0.436,-0.6a1.812,1.812 0 0 1 -0.157,-0.759a1.673,1.673 0 0 1 0.19,-0.811a1.818,1.818 0 0 1 0.529,-0.63a2.609,2.609 0 0 1 0.809,-0.409a3.385,3.385 0 0 1 1.039,-0.15a4.088,4.088 0 0 1 0.728,0.061a2.393,2.393 0 0 1 0.618,0.19l0,-0.274q0,-1.036 -1.2,-1.04a2.62,2.62 0 0 0 -0.936,0.168a4.43,4.43 0 0 0 -0.937,0.5l-0.533,-1.14a4.777,4.777 0 0 1 1.23,-0.58a4.549,4.549 0 0 1 1.356,-0.2a3.108,3.108 0 0 1 2.1,0.641a2.34,2.34 0 0 1 0.738,1.873l0,1.539a0.562,0.562 0 0 0 0.106,0.38a0.545,0.545 0 0 0 0.36,0.13l0,1.54a3.25,3.25 0 0 1 -0.483,0.075c-0.148,0.015 -0.281,0.02 -0.393,0.02a1.318,1.318 0 0 1 -0.766,-0.206a0.851,0.851 0 0 1 -0.329,-0.558l-0.037,-0.276a2.714,2.714 0 0 1 -0.951,0.786a2.619,2.619 0 0 1 -1.168,0.275a2.364,2.364 0 0 1 -0.895,-0.141l0.073,-0.004zm0.8,-2.514a0.69,0.69 0 0 0 -0.325,0.594a0.679,0.679 0 0 0 0.251,0.541a0.959,0.959 0 0 0 0.64,0.209a1.678,1.678 0 0 0 0.578,-0.1a1.342,1.342 0 0 0 0.459,-0.272a0.576,0.576 0 0 0 0.262,-0.436l0,-0.57a3.2,3.2 0 0 0 -0.517,-0.14a3.131,3.131 0 0 0 -0.519,-0.051a1.425,1.425 0 0 0 -0.837,0.224l0.008,0.001zm-4.86,2.566a1.387,1.387 0 0 1 -0.529,-0.271a1.292,1.292 0 0 1 -0.361,-0.5a1.879,1.879 0 0 1 -0.128,-0.744l0,-3.125l-0.761,0l0,-1.375l0.761,0l0,-1.9l1.825,0l0,1.908l1.219,0l0,1.378l-1.219,0l0,2.5a0.523,0.523 0 0 0 0.154,0.431a0.561,0.561 0 0 0 0.38,0.133a1.323,1.323 0 0 0 0.408,-0.071a2.95,2.95 0 0 0 0.387,-0.146l0.345,1.446a8.514,8.514 0 0 1 -0.856,0.3a3.638,3.638 0 0 1 -0.981,0.136a2.332,2.332 0 0 1 -0.639,-0.083l-0.005,-0.017zm-11.814,-0.057a1.888,1.888 0 0 1 -1.088,-1a1.81,1.81 0 0 1 -0.161,-0.761a1.713,1.713 0 0 1 0.19,-0.809a1.891,1.891 0 0 1 0.529,-0.631a2.6,2.6 0 0 1 0.812,-0.409a3.326,3.326 0 0 1 1.036,-0.148a4.241,4.241 0 0 1 0.733,0.062a2.483,2.483 0 0 1 0.614,0.19l0,-0.274q0,-1.037 -1.2,-1.039a2.674,2.674 0 0 0 -0.937,0.167a4.645,4.645 0 0 0 -0.934,0.5l-0.536,-1.142a4.725,4.725 0 0 1 1.231,-0.581a4.608,4.608 0 0 1 1.358,-0.2a3.105,3.105 0 0 1 2.1,0.641a2.323,2.323 0 0 1 0.742,1.871l0,1.539a0.553,0.553 0 0 0 0.1,0.381a0.561,0.561 0 0 0 0.365,0.131l0,1.541a3.578,3.578 0 0 1 -0.483,0.074c-0.148,0.013 -0.279,0.018 -0.4,0.018a1.333,1.333 0 0 1 -0.762,-0.205a0.864,0.864 0 0 1 -0.332,-0.558l-0.032,-0.275a2.759,2.759 0 0 1 -0.951,0.786a2.594,2.594 0 0 1 -1.165,0.275a2.347,2.347 0 0 1 -0.9,-0.138l0.071,-0.006zm0.8,-2.514a0.7,0.7 0 0 0 -0.325,0.595a0.677,0.677 0 0 0 0.253,0.54a0.953,0.953 0 0 0 0.637,0.21a1.646,1.646 0 0 0 0.575,-0.1a1.338,1.338 0 0 0 0.464,-0.275a0.574,0.574 0 0 0 0.262,-0.433l0,-0.57a3.184,3.184 0 0 0 -1.037,-0.19a1.4,1.4 0 0 0 -0.833,0.228l0.004,-0.005zm385.5,2.251a3.989,3.989 0 0 1 -1.212,-0.95a4.548,4.548 0 0 1 -0.79,-1.346a4.188,4.188 0 0 1 -0.024,-2.981a4.105,4.105 0 0 1 0.76,-1.3a3.911,3.911 0 0 1 1.229,-0.922a3.718,3.718 0 0 1 1.65,-0.354a3.51,3.51 0 0 1 1.88,0.492a3.091,3.091 0 0 1 1.185,1.276l-1.438,1a1.645,1.645 0 0 0 -0.318,-0.53a1.815,1.815 0 0 0 -0.42,-0.342a1.591,1.591 0 0 0 -0.479,-0.183a2.05,2.05 0 0 0 -0.459,-0.05a1.683,1.683 0 0 0 -0.867,0.216a1.978,1.978 0 0 0 -0.6,0.559a2.474,2.474 0 0 0 -0.357,0.775a3.156,3.156 0 0 0 0.021,1.8a2.606,2.606 0 0 0 0.4,0.789a1.907,1.907 0 0 0 0.621,0.542a1.671,1.671 0 0 0 0.81,0.2a1.91,1.91 0 0 0 0.477,-0.062a2,2 0 0 0 0.475,-0.194a1.563,1.563 0 0 0 0.41,-0.343a1.69,1.69 0 0 0 0.3,-0.518l1.536,0.9a2.476,2.476 0 0 1 -0.528,0.8a3.253,3.253 0 0 1 -0.79,0.595a4.031,4.031 0 0 1 -0.944,0.364a3.847,3.847 0 0 1 -0.976,0.126a3.318,3.318 0 0 1 -1.6,-0.357l0.048,-0.002zm-131.493,0a3.936,3.936 0 0 1 -1.215,-0.927a4.317,4.317 0 0 1 -1.066,-2.847a4.207,4.207 0 0 1 1.1,-2.851a3.866,3.866 0 0 1 1.229,-0.9a3.574,3.574 0 0 1 1.559,-0.336a3.488,3.488 0 0 1 1.576,0.353a3.928,3.928 0 0 1 1.214,0.935a4.245,4.245 0 0 1 0.778,1.325a4.23,4.23 0 0 1 -0.823,4.353a3.985,3.985 0 0 1 -1.227,0.907a3.545,3.545 0 0 1 -1.556,0.342a3.47,3.47 0 0 1 -1.6,-0.347l0.031,-0.007zm0.729,-5.981a1.9,1.9 0 0 0 -0.607,0.554a2.515,2.515 0 0 0 -0.372,0.779a3.184,3.184 0 0 0 -0.126,0.9a3.068,3.068 0 0 0 0.133,0.907a2.588,2.588 0 0 0 0.374,0.782a1.892,1.892 0 0 0 0.617,0.548a1.746,1.746 0 0 0 0.855,0.205a1.638,1.638 0 0 0 0.855,-0.214a2,2 0 0 0 0.611,-0.573a2.42,2.42 0 0 0 0.365,-0.786a3.369,3.369 0 0 0 0.117,-0.894a3.219,3.219 0 0 0 -0.128,-0.91a2.523,2.523 0 0 0 -0.379,-0.775a1.886,1.886 0 0 0 -0.619,-0.537a1.726,1.726 0 0 0 -0.833,-0.2a1.674,1.674 0 0 0 -0.857,0.226l-0.006,-0.012zm-8.207,5.976a3.917,3.917 0 0 1 -1.207,-0.95a4.511,4.511 0 0 1 -0.8,-1.347a4.228,4.228 0 0 1 -0.022,-2.98a4.021,4.021 0 0 1 0.765,-1.3a3.877,3.877 0 0 1 1.229,-0.923a3.726,3.726 0 0 1 1.647,-0.354a3.533,3.533 0 0 1 1.883,0.491a3.1,3.1 0 0 1 1.187,1.277l-1.437,1a1.639,1.639 0 0 0 -0.321,-0.53a1.677,1.677 0 0 0 -0.423,-0.341a1.553,1.553 0 0 0 -0.474,-0.183a2.112,2.112 0 0 0 -0.463,-0.049a1.651,1.651 0 0 0 -0.866,0.216a1.921,1.921 0 0 0 -0.6,0.557a2.6,2.6 0 0 0 -0.359,0.777a3.209,3.209 0 0 0 -0.119,0.877a3.019,3.019 0 0 0 0.142,0.923a2.7,2.7 0 0 0 0.4,0.788a1.911,1.911 0 0 0 0.619,0.542a1.651,1.651 0 0 0 0.811,0.2a1.884,1.884 0 0 0 0.95,-0.258a1.571,1.571 0 0 0 0.41,-0.34a1.678,1.678 0 0 0 0.3,-0.519l1.54,0.9a2.484,2.484 0 0 1 -0.529,0.8a3.408,3.408 0 0 1 -0.795,0.593a3.973,3.973 0 0 1 -0.941,0.366a3.847,3.847 0 0 1 -0.973,0.126a3.325,3.325 0 0 1 -1.606,-0.359l0.052,0zm-253.793,0a3.969,3.969 0 0 1 -1.212,-0.95a4.436,4.436 0 0 1 -0.792,-1.346a4.26,4.26 0 0 1 -0.281,-1.529a4.17,4.17 0 0 1 0.26,-1.453a4.032,4.032 0 0 1 0.762,-1.295a3.889,3.889 0 0 1 1.226,-0.926a3.766,3.766 0 0 1 1.648,-0.353a3.527,3.527 0 0 1 1.884,0.493a3.04,3.04 0 0 1 1.183,1.276l-1.435,1a1.675,1.675 0 0 0 -0.319,-0.53a1.815,1.815 0 0 0 -0.42,-0.342a1.622,1.622 0 0 0 -0.477,-0.183a2.153,2.153 0 0 0 -0.462,-0.051a1.683,1.683 0 0 0 -0.868,0.217a1.983,1.983 0 0 0 -0.6,0.557a2.492,2.492 0 0 0 -0.357,0.777a3.252,3.252 0 0 0 -0.121,0.877a2.958,2.958 0 0 0 0.144,0.922a2.665,2.665 0 0 0 0.4,0.79a1.9,1.9 0 0 0 0.619,0.541a1.656,1.656 0 0 0 0.809,0.2a1.9,1.9 0 0 0 0.953,-0.257a1.6,1.6 0 0 0 0.409,-0.342a1.651,1.651 0 0 0 0.3,-0.518l1.54,0.9a2.467,2.467 0 0 1 -0.532,0.8a3.2,3.2 0 0 1 -0.792,0.593a4.016,4.016 0 0 1 -0.941,0.367a3.755,3.755 0 0 1 -0.975,0.127a3.316,3.316 0 0 1 -1.6,-0.362l0.047,0zm425.664,0.292l0,-8.1l5.589,0l0,1.643l-3.718,0l0,1.572l3.193,0l0,1.521l-3.193,0l0,1.723l3.822,0l0,1.642l-5.693,-0.001zm-8.176,0l0,-8.1l3.025,0a4.426,4.426 0 0 1 1.756,0.318a3.54,3.54 0 0 1 2.026,2.148a4.75,4.75 0 0 1 0.258,1.571a4.648,4.648 0 0 1 -0.286,1.668a3.578,3.578 0 0 1 -0.813,1.278a3.673,3.673 0 0 1 -1.28,0.82a4.512,4.512 0 0 1 -1.655,0.291l-3.031,0.006zm1.873,-1.644l1.152,0a2.178,2.178 0 0 0 0.913,-0.182a1.819,1.819 0 0 0 0.666,-0.506a2.282,2.282 0 0 0 0.411,-0.759a3.3,3.3 0 0 0 0,-1.941a2.208,2.208 0 0 0 -0.416,-0.761a1.784,1.784 0 0 0 -0.672,-0.49a2.258,2.258 0 0 0 -0.9,-0.17l-1.153,0l-0.001,4.809zm-4.6,1.644l-0.626,-1.812l-2.521,0l-0.617,1.813l-1.985,0l3.117,-8.1l1.515,0l3.1,8.1l-1.983,-0.001zm-2.851,-3.1l1.9,0l-0.936,-3.01l-0.964,3.01zm-9.98,3.1l0,-8.1l3.021,0a4.448,4.448 0 0 1 1.758,0.319a3.635,3.635 0 0 1 1.262,0.867a3.566,3.566 0 0 1 0.76,1.282a5,5 0 0 1 -0.025,3.242a3.54,3.54 0 0 1 -2.093,2.1a4.506,4.506 0 0 1 -1.661,0.291l-3.022,-0.001zm1.869,-1.644l1.152,0a2.139,2.139 0 0 0 0.915,-0.183a1.881,1.881 0 0 0 0.663,-0.506a2.41,2.41 0 0 0 0.411,-0.759a3.368,3.368 0 0 0 0,-1.941a2.2,2.2 0 0 0 -0.416,-0.76a1.833,1.833 0 0 0 -0.672,-0.491a2.3,2.3 0 0 0 -0.9,-0.172l-1.15,0l-0.003,4.812zm-5.29,1.644l0,-8.1l1.87,0l0,8.1l-1.87,0zm-10.29,0l-0.628,-1.812l-2.521,0l-0.614,1.813l-1.986,0l3.114,-8.1l1.521,0l3.1,8.1l-1.986,-0.001zm-2.852,-3.1l1.9,0l-0.934,-3.01l-0.966,3.01zm-6.866,3.1l-3.1,-8.1l1.975,0l1.915,5.747l1.88,-5.747l1.975,0l-3.08,8.1l-1.565,0zm-5.7,0l0,-8.1l1.872,0l0,8.1l-1.872,0zm-3.033,0l-1.632,-2.612l-1.222,0l0,2.612l-1.871,0l0,-8.1l3.652,0a2.335,2.335 0 0 1 1.055,0.238a2.733,2.733 0 0 1 0.837,0.628a2.844,2.844 0 0 1 0.555,0.876a2.65,2.65 0 0 1 0.2,0.994a2.906,2.906 0 0 1 -0.093,0.722a2.76,2.76 0 0 1 -0.262,0.659a2.515,2.515 0 0 1 -0.415,0.554a2.679,2.679 0 0 1 -0.551,0.417l1.855,3.009l-2.108,0.003zm-2.851,-4.243l1.711,0a0.7,0.7 0 0 0 0.569,-0.315a1.281,1.281 0 0 0 0.239,-0.8a1.114,1.114 0 0 0 -0.271,-0.8a0.8,0.8 0 0 0 -0.6,-0.3l-1.655,0l0.007,2.215zm-8.943,4.243l0,-8.1l3.458,0a2.392,2.392 0 0 1 1.068,0.238a2.77,2.77 0 0 1 0.832,0.627a2.978,2.978 0 0 1 0.545,0.876a2.656,2.656 0 0 1 0.2,1a2.869,2.869 0 0 1 -0.192,1.024a2.972,2.972 0 0 1 -0.522,0.879a2.491,2.491 0 0 1 -0.815,0.613a2.44,2.44 0 0 1 -1.062,0.23l-1.642,0l0,2.612l-1.87,0.001zm1.871,-4.243l1.528,0a0.721,0.721 0 0 0 0.57,-0.284a1.274,1.274 0 0 0 0.239,-0.833a1.5,1.5 0 0 0 -0.074,-0.491a1,1 0 0 0 -0.2,-0.343a0.753,0.753 0 0 0 -0.284,-0.2a0.877,0.877 0 0 0 -0.317,-0.061l-1.46,0l-0.002,2.212zm-62.455,4.243l-0.627,-1.812l-2.519,0l-0.617,1.813l-1.983,0l3.112,-8.1l1.521,0l3.1,8.1l-1.987,-0.001zm-2.851,-3.1l1.9,0l-0.935,-3.01l-0.965,3.01zm-5.111,3.1l-1.632,-2.612l-1.222,0l0,2.612l-1.869,0l0,-8.1l3.65,0a2.341,2.341 0 0 1 1.055,0.237a2.76,2.76 0 0 1 0.837,0.629a2.876,2.876 0 0 1 0.555,0.875a2.653,2.653 0 0 1 0.2,0.995a2.9,2.9 0 0 1 -0.091,0.722a2.768,2.768 0 0 1 -0.265,0.659a2.518,2.518 0 0 1 -0.971,0.97l1.861,3.009l-2.108,0.004zm-2.852,-4.243l1.712,0a0.7,0.7 0 0 0 0.569,-0.315a1.287,1.287 0 0 0 0.24,-0.8a1.138,1.138 0 0 0 -0.275,-0.8a0.806,0.806 0 0 0 -0.593,-0.295l-1.655,0l0.002,2.21zm-8.942,4.243l0,-8.1l3.458,0a2.365,2.365 0 0 1 1.063,0.238a2.71,2.71 0 0 1 0.836,0.628a2.94,2.94 0 0 1 0.545,0.876a2.578,2.578 0 0 1 0.2,0.994a2.874,2.874 0 0 1 -0.189,1.024a3.044,3.044 0 0 1 -0.525,0.88a2.5,2.5 0 0 1 -0.814,0.613a2.446,2.446 0 0 1 -1.061,0.229l-1.642,0l0,2.612l-1.871,0.006zm1.872,-4.243l1.526,0a0.718,0.718 0 0 0 0.572,-0.284a1.281,1.281 0 0 0 0.236,-0.833a1.44,1.44 0 0 0 -0.074,-0.49a1.016,1.016 0 0 0 -0.2,-0.342a0.712,0.712 0 0 0 -0.284,-0.2a0.871,0.871 0 0 0 -0.317,-0.061l-1.462,0l0.003,2.21zm-5.292,4.243l0,-4.849l-1.759,3.526l-1,0l-1.758,-3.526l0,4.849l-1.868,0l0,-8.1l2.028,0l2.1,4.231l2.111,-4.231l2.018,0l0,8.1l-1.872,0zm-261.893,0l0,-5.982l1.679,0l0,1.209a2.548,2.548 0 0 1 0.8,-0.941a1.966,1.966 0 0 1 1.035,-0.36a1.576,1.576 0 0 1 0.284,0.015l0,1.643a3.4,3.4 0 0 0 -1.193,0.213a1.507,1.507 0 0 0 -0.779,0.619l0,3.589l-1.826,-0.005zm91.062,-5.218l0,-4.462l-33.9,0l0,4.461a1.339,1.339 0 1 1 -2.678,0l0,-5.8a1.341,1.341 0 0 1 1.339,-1.338l36.577,0a1.338,1.338 0 0 1 1.338,1.336l0,5.8a1.338,1.338 0 0 1 -2.676,0l0,0.003zm-81.692,-1.466a1.552,1.552 0 0 1 0.074,-0.394a1.9,1.9 0 0 1 0.244,-0.542a1.738,1.738 0 0 1 0.451,-0.476a1.114,1.114 0 0 1 0.676,-0.206a1.143,1.143 0 0 1 0.47,0.086a3.094,3.094 0 0 1 0.36,0.19c0.11,0.069 0.218,0.131 0.326,0.189a0.723,0.723 0 0 0 0.363,0.086a0.525,0.525 0 0 0 0.315,-0.086a0.6,0.6 0 0 0 0.18,-0.189a0.536,0.536 0 0 0 0.079,-0.19a0.883,0.883 0 0 0 0.02,-0.1l0.98,0a1.675,1.675 0 0 1 -0.079,0.353a2.484,2.484 0 0 1 -0.259,0.549a1.952,1.952 0 0 1 -0.463,0.5a1.138,1.138 0 0 1 -0.706,0.217a1.218,1.218 0 0 1 -0.464,-0.079a2.561,2.561 0 0 1 -0.37,-0.184c-0.113,-0.07 -0.222,-0.128 -0.331,-0.182a0.756,0.756 0 0 0 -0.351,-0.08a0.472,0.472 0 0 0 -0.3,0.08a0.6,0.6 0 0 0 -0.161,0.183a0.573,0.573 0 0 0 -0.066,0.189c-0.007,0.057 -0.014,0.091 -0.014,0.1l-0.974,-0.014z"/>
   <g id="svg_3">
    <path id="svg_5" fill="#ffffff" d="m174.02566,100.23868a19.744,19.744 0 0 1 -19.581,-19.908l0,-0.793a5.26,5.26 0 0 0 0.044,-0.662a11.534,11.534 0 0 1 0.116,-1.156a35.832,35.832 0 0 1 9.028,-19.454a0.131,0.131 0 0 1 0.211,0.145c-0.529,1.142 -1.635,4.424 -0.1,4.524c0.516,0.029 0.776,-0.284 1.075,-0.9c1.798,-3.621 3.486,-13.569 11.926,-16.356c0.131,-0.044 0.291,0.029 0.176,0.218a9.71,9.71 0 0 0 -0.139,10.241c1.4,2.245 2.808,2.43 3.587,1.746c0.968,-0.851 0.722,-3.346 0.3,-4.146a0.131,0.131 0 0 1 0.2,-0.16c6.133,4.146 3.245,10.125 6.037,10.314c1.572,0.11 1.506,-1.687 1.237,-2.677c-0.036,-0.173 0.147,-0.24 0.256,-0.073c4.045,6.51 5.746,14.467 5.5,19.333a0.35,0.35 0 0 0 0.041,0.184a19.744,19.744 0 0 1 -19.747,19.581l-0.167,-0.001zm9.263,-19.673a9.158,9.158 0 1 0 -9.209,9.078l0,0a9.158,9.158 0 0 0 9.209,-9.078zm103.035,10.985c-3.36,0 -5.15,-2.611 -5.15,-5.688c0,-4.648 3.4,-5.579 5.935,-5.579l4.364,0l0,-1.181c0,-1.455 -1.091,-1.782 -5.237,-1.782c-1.753,0 -3.637,0.138 -3.717,0.138a0.233,0.233 0 0 1 -0.228,-0.222l0,-3.244a0.232,0.232 0 0 1 0.182,-0.218a36.425,36.425 0 0 1 6.91,-0.823c4.575,0 7.274,1.106 7.274,6.044l0,11.97a0.221,0.221 0 0 1 -0.067,0.159a0.226,0.226 0 0 1 -0.159,0.066l-4.517,0a0.217,0.217 0 0 1 -0.211,-0.167l-0.435,-1.574a5.664,5.664 0 0 1 -4.419,2.123q-0.262,0.002 -0.525,-0.022zm-0.171,-5.907c0,1.732 1.244,2.124 2.437,2.124a2.764,2.764 0 0 0 2.909,-2.909l0,-1.457l-0.029,0.06l-2.838,0c-1.5,0 -2.479,0.576 -2.479,2.182zm-64.983,-3.4c0,-5.688 2.218,-9.3 8.509,-9.3s8.547,3.637 8.547,9.3s-2.218,9.3 -8.547,9.3s-8.509,-3.572 -8.509,-9.3zm5.585,0c0,3.077 0.451,4.961 2.911,4.961s2.959,-1.884 2.959,-4.961s-0.457,-4.932 -2.959,-4.932s-2.91,1.859 -2.91,4.936l-0.001,-0.004zm14.54,3.863l0,-8.473l-2.182,0a0.225,0.225 0 0 1 -0.225,-0.225l0,-3.043a0.226,0.226 0 0 1 0.153,-0.212l2.91,-0.851l1.549,-4.852a0.224,0.224 0 0 1 0.159,-0.124l2.546,0a0.219,0.219 0 0 1 0.162,0.064a0.215,0.215 0 0 1 0.063,0.161l0,4.786l3.815,0a0.225,0.225 0 0 1 0.225,0.225l0,3.884a0.213,0.213 0 0 1 -0.066,0.157a0.218,0.218 0 0 1 -0.159,0.062l-3.816,0l0,7.9c0,0.822 0.466,1.324 1.608,1.324l2.182,0a0.226,0.226 0 0 1 0.226,0.225l0,3.416a0.232,0.232 0 0 1 -0.146,0.211a8.719,8.719 0 0 1 -3.637,0.8c-3.8,0 -5.366,-2.253 -5.366,-5.431l-0.001,-0.004zm73.922,0l0,-8.469l-2.172,0a0.226,0.226 0 0 1 -0.225,-0.226l0,-3.04a0.228,0.228 0 0 1 0.153,-0.212l2.911,-0.851l1.549,-4.852a0.224,0.224 0 0 1 0.211,-0.153l2.546,0a0.219,0.219 0 0 1 0.225,0.225l0,4.787l3.82,0a0.225,0.225 0 0 1 0.226,0.225l0,3.884a0.217,0.217 0 0 1 -0.226,0.218l-3.82,0l0,7.923c0,0.823 0.466,1.324 1.608,1.324l2.182,0a0.226,0.226 0 0 1 0.225,0.225l0,3.411a0.233,0.233 0 0 1 -0.146,0.211a8.733,8.733 0 0 1 -3.637,0.8l-0.009,0c-3.859,0.005 -5.42,-2.251 -5.42,-5.426l-0.001,-0.004zm-61.538,5.017a0.227,0.227 0 0 1 -0.068,-0.162l0,0l0,-17.456a0.225,0.225 0 0 1 0.225,-0.225l4.262,0a0.224,0.224 0 0 1 0.211,0.153l0.5,1.775l0.073,0a6.37,6.37 0 0 1 5.186,-2.291a4.219,4.219 0 0 1 4.444,2.91l0.146,0a6.271,6.271 0 0 1 5.608,-2.91c3.717,0 4.91,2.429 4.91,5.652l0,12.364a0.226,0.226 0 0 1 -0.226,0.225l-4.735,0a0.225,0.225 0 0 1 -0.225,-0.225l0,-11.8a2.07,2.07 0 0 0 -2.248,-1.935a2.619,2.619 0 0 0 -2.749,2.255l0,11.512a0.219,0.219 0 0 1 -0.225,0.225l-4.75,0a0.225,0.225 0 0 1 -0.218,-0.225l0,-11.831c0,-1.4 -1.4,-1.935 -2.416,-1.935a2.569,2.569 0 0 0 -2.582,2.473l0,11.293a0.225,0.225 0 0 1 -0.218,0.225l-4.75,0a0.221,0.221 0 0 1 -0.155,-0.067zm-39.652,0.063a0.225,0.225 0 0 1 -0.225,-0.225l0,-11.91c0,-1.4 -1.455,-1.826 -2.386,-1.826a2.518,2.518 0 0 0 -2.641,2.357l0,11.383a0.225,0.225 0 0 1 -0.225,0.225l-4.721,0a0.225,0.225 0 0 1 -0.225,-0.225l0,-24.588a0.219,0.219 0 0 1 0.225,-0.225l4.716,0a0.225,0.225 0 0 1 0.225,0.225l0,8.858l0.075,0a6.434,6.434 0 0 1 5.215,-2.291c3.717,0 4.909,2.429 4.909,5.652l0,12.369a0.225,0.225 0 0 1 -0.225,0.225l-4.717,-0.004zm85.639,-0.23l0,-17.451a0.225,0.225 0 0 1 0.219,-0.226l4.218,0a0.218,0.218 0 0 1 0.219,0.182l0.5,2.713l0.073,0a6.1,6.1 0 0 1 5.521,-3.251a0.226,0.226 0 0 1 0.225,0.225l0,4.859a0.226,0.226 0 0 1 -0.225,0.225l-1.207,0c-3.252,0 -4.364,1.3 -4.364,2.909l0,9.79a0.226,0.226 0 0 1 -0.218,0.226l-4.737,0a0.225,0.225 0 0 1 -0.224,-0.2l0,-0.001z"/>
   </g>
  </g>
 </g>
</svg>