<svg xmlns="http://www.w3.org/2000/svg" width="496" height="30.258" viewBox="0 0 496 30.258"><g transform="translate(-665.507 -1050.672)"><g transform="translate(773.358 1057.684)"><g transform="translate(0 4.043)"><path d="M2863.737-2982.68l2.293-13.46h3.668l-2.294,13.46Zm16.921-13.169a9.469,9.469,0,0,0-3.288-.562c-3.625,0-6.177,1.825-6.2,4.441-.02,1.934,1.823,3.013,3.215,3.657,1.428.661,1.907,1.08,1.9,1.67-.009.9-1.141,1.31-2.195,1.31a7.708,7.708,0,0,1-3.453-.707l-.472-.214-.516,3.013a11.633,11.633,0,0,0,4.086.718c3.857,0,6.364-1.8,6.388-4.6.014-1.531-.963-2.7-3.08-3.656-1.282-.622-2.067-1.038-2.059-1.668,0-.561.664-1.157,2.1-1.157a6.762,6.762,0,0,1,2.746.515l.329.156.5-2.916m9.441-.29h-2.835a1.822,1.822,0,0,0-1.92,1.116l-5.449,12.335h3.852s.63-1.659.772-2.022l4.7.006c.109.468.445,2.018.445,2.018h3.405l-2.97-13.451Zm-4.5,8.69c.3-.775,1.461-3.762,1.461-3.762-.021.037.3-.779.487-1.284l.248,1.16s.7,3.214.849,3.886Zm-24.978-8.69-3.592,9.178-.38-1.86a10.5,10.5,0,0,0-5.08-5.645l3.285,11.77h3.881l5.775-13.434h-3.886" transform="translate(-2847.72 2997.045)" fill="#fff"/><path d="M2831.882-3000.581h-5.916l-.047.281c4.6,1.114,7.648,3.806,8.912,7.041l-1.287-6.184a1.537,1.537,0,0,0-1.664-1.137" transform="translate(-2825.919 3000.591)" fill="#fff"/></g><g transform="translate(58.493 0)"><path d="M3229.668-3013.8a11.341,11.341,0,0,1,.175-1.3c.075-.455.557-3.326.557-3.326h.818a12.372,12.372,0,0,1,3.51-6.375,11.573,11.573,0,0,0-7.487-2.746,11.634,11.634,0,0,0-11.621,11.62,11.633,11.633,0,0,0,11.621,11.619,11.558,11.558,0,0,0,7.487-2.746,12.376,12.376,0,0,1-3.37-5.768,2.672,2.672,0,0,1-.679.094.935.935,0,0,1-.767-.291A.935.935,0,0,1,3229.668-3013.8Zm-9.14.986.735-4.606-1.641,4.606h-.874l-.108-4.58-.771,4.58h-1.2l1-5.99h1.845l.052,3.71,1.245-3.71h1.991l-.992,5.99Zm4.312,0,.023-.505a1.607,1.607,0,0,1-1.344.589,1.2,1.2,0,0,1-.88-.406,1.2,1.2,0,0,1-.291-.924c0-1.187.828-1.879,2.251-1.879a4.283,4.283,0,0,1,.524.038,1.2,1.2,0,0,0,.05-.316c0-.323-.223-.442-.822-.442a4.282,4.282,0,0,0-1.359.218c.014-.081.178-1.1.178-1.1a5.115,5.115,0,0,1,1.536-.258c1.1,0,1.685.5,1.685,1.427a6.15,6.15,0,0,1-.1.967c-.11.706-.349,2.219-.382,2.588Zm3.755-2.9a1.332,1.332,0,0,1,.9,1.358c0,1.114-.625,1.629-1.979,1.629a5.984,5.984,0,0,1-1.334-.144c.007-.052.176-1.123.176-1.123a3.61,3.61,0,0,0,1.15.192c.508,0,.738-.138.738-.441,0-.221-.08-.294-.6-.538a1.423,1.423,0,0,1-.977-1.361c0-.9.492-1.65,1.927-1.65a8.7,8.7,0,0,1,1.129.094l-.182,1.13a7.2,7.2,0,0,0-.922-.074c-.415,0-.628.135-.628.4,0,.226.061.282.6.525Z" transform="translate(-3215.62 3027.55)" fill="#fff"/><path d="M3268.72-2943.261a.447.447,0,0,0,.116.353.446.446,0,0,0,.343.143c.522,0,.9-.5.92-1.217a2.025,2.025,0,0,0-.285-.02C3269.085-2944,3268.72-2943.757,3268.72-2943.261Z" transform="translate(-3260.746 2956.548)" fill="#fff"/><path d="M3404.435-2944c-.727,0-1.095.249-1.095.741a.446.446,0,0,0,.116.353.446.446,0,0,0,.343.143c.523,0,.9-.5.921-1.217a2.1,2.1,0,0,0-.286-.02Z" transform="translate(-3375.159 2956.547)" fill="#fff"/><path d="M3357.858-3027.55a11.566,11.566,0,0,0-7.488,2.745,12.356,12.356,0,0,1,3.63,7.055,2.622,2.622,0,0,1,2.222-1.212,4.469,4.469,0,0,1,1.411.312l-.209,1.3a2.45,2.45,0,0,0-1.146-.324c-.958,0-1.63.925-1.63,2.247,0,.909.451,1.46,1.2,1.46a2.5,2.5,0,0,0,1.089-.307l-.226,1.366a4,4,0,0,1-1.133.176,2.079,2.079,0,0,1-1.685-.755,12.362,12.362,0,0,1-3.519,6.434,11.556,11.556,0,0,0,7.487,2.746,11.633,11.633,0,0,0,11.62-11.62A11.633,11.633,0,0,0,3357.858-3027.55Zm2.775,14.73h-1.063l.023-.5a1.607,1.607,0,0,1-1.344.589,1.2,1.2,0,0,1-.88-.406,1.2,1.2,0,0,1-.291-.925c0-1.187.829-1.879,2.252-1.879a4.362,4.362,0,0,1,.523.038,1.256,1.256,0,0,0,.049-.316c0-.323-.223-.442-.821-.442a4.307,4.307,0,0,0-1.358.218c.013-.08.177-1.095.177-1.095a5.108,5.108,0,0,1,1.535-.259c1.1,0,1.685.5,1.685,1.427a6.03,6.03,0,0,1-.1.967c-.107.708-.35,2.225-.387,2.589Zm1.711,0h-1.282l.058-.327c.224-1.51.509-3.037.669-4.545h1.178a4.375,4.375,0,0,1-.077.739c.393-.576.693-.879,1.229-.768a4.816,4.816,0,0,0-.486,1.414c-.722-.067-.834.513-1.293,3.489Zm3.865,0,.06-.454a1.509,1.509,0,0,1-1.183.538c-.936,0-1.549-.8-1.549-2.022,0-1.62.955-2.987,2.087-2.987a1.447,1.447,0,0,1,1.225.664l.281-1.732h1.265l-.976,5.99Z" transform="translate(-3330.14 3027.55)" fill="#fff"/><path d="M3447.992-2954.22c-.582,0-.995.679-.995,1.638,0,.637.222.96.655.96.6,0,1.018-.677,1.018-1.642C3448.666-2953.883,3448.432-2954.22,3447.992-2954.22Z" transform="translate(-3412.263 2965.227)" fill="#fff"/><path d="M3334.814-2955.21c-.405,0-.7.31-.814.869h1.4C3335.413-2954.443,3335.544-2955.21,3334.814-2955.21Z" transform="translate(-3316.231 2966.073)" fill="#fff"/><path d="M3329.991-2997.635a10.714,10.714,0,0,0-.065-1.138,5.358,5.358,0,0,0-.241.871c-.72-.073-.83.51-1.288,3.49h-1.284l.059-.328c.223-1.51.508-3.037.669-4.546h1.177a4.342,4.342,0,0,1-.077.74c.308-.452.562-.735.912-.783a11.608,11.608,0,0,0-3.432-6.564,11.61,11.61,0,0,0-3.438,6.608h.331l-.174,1.171h-.281q-.014.294-.014.592a11.578,11.578,0,0,0,3.572,8.37,11.585,11.585,0,0,0,3.533-7.457c-.007-.1-.011-.2-.011-.3a5.441,5.441,0,0,1,.051-.721Zm-4.458,2.206a3.021,3.021,0,0,0,1.327-.308l-.213,1.217a4.351,4.351,0,0,1-1.31.2,1.94,1.94,0,0,1-1.62-.553,1.94,1.94,0,0,1-.55-1.621c0-1.667.946-2.893,2.231-2.893a1.632,1.632,0,0,1,1.266.488,1.631,1.631,0,0,1,.458,1.277,5.23,5.23,0,0,1-.157,1.2h-2.539c-.087.7.372.992,1.112.992Z" transform="translate(-3306.754 3009.15)" fill="#fff"/></g><path d="M4509.625-2986.859h.177l.142-.048.143-.048.125-.127.125-.128.065-.169.067-.17v-.5l-.059-.094-.059-.093-.1-.063-.1-.063h-.443l-.151.068-.15.066-.088.094-.086.094-.069.162-.069.161-.015.252-.013.252.064.126.063.125.124.057.122.056Zm28.462,7.178h.643v-.393l.074-.488c.041-.267.109-.692.15-.943s.093-.568.115-.706.079-.435.127-.662.11-.468.135-.544a.82.82,0,0,0,.046-.17,1.951,1.951,0,0,1,.122-.294l.121-.256.159-.213.161-.212.175-.132a2.525,2.525,0,0,1,.345-.214l.167-.081h.737l.144.046.145.046.024-.015.025-.015v-.094a3.722,3.722,0,0,1,.07-.428l.07-.332-.078-.031c-.074-.027-.15-.053-.224-.076l-.148-.046h-.529l-.215.075-.216.076-.163.094-.161.094-.211.221-.21.22-.114.172a.73.73,0,0,1-.122.162c0-.006.03-.2.076-.436s.084-.457.084-.492v-.066h-1.087v.019c0,.01-.028.2-.061.419s-.1.645-.148.944q-.087.537-.175,1.073c-.051.309-.105.619-.163.927-.041.218-.113.6-.162.854s-.126.655-.174.9l-.142.713-.054.272Zm-14.909,0h.627l.019-.265c.01-.146.046-.441.079-.656s.1-.641.151-.948q.094-.57.205-1.137c.064-.317.134-.634.159-.7a.8.8,0,0,0,.043-.165,1.559,1.559,0,0,1,.106-.269,3.47,3.47,0,0,1,.237-.427l.136-.2.177-.167.181-.167.221-.1.221-.107h.676l.167.051c.094.027.175.049.188.049s.017-.031.017-.069.035-.232.074-.431.074-.37.074-.374a.769.769,0,0,0-.214-.084,2.814,2.814,0,0,0-.36-.083l-.147-.019-.187.035a2.479,2.479,0,0,0-.347.094,1.958,1.958,0,0,0-.316.159,2.2,2.2,0,0,0-.3.242,3.448,3.448,0,0,0-.294.347l-.193.265-.042.059.027-.118c.013-.066.053-.281.085-.468s.07-.374.078-.4l.016-.052h-1.123v.071c0,.039-.034.273-.073.522s-.109.663-.15.921-.114.709-.162,1c-.051.311-.105.62-.162.927q-.166.883-.338,1.764c-.051.251-.109.547-.132.655s-.042.214-.042.227v.026Zm-14.8,0h.633l.018-.047a.591.591,0,0,0,.018-.15c0-.056.039-.35.089-.655q.165-1.03.341-2.065c.05-.291.1-.579.158-.868.046-.243.119-.621.159-.843s.123-.634.181-.923.112-.538.12-.552l.016-.026-.64.007-.641.009-.053.383c-.029.211-.093.627-.142.927s-.123.756-.165,1.014c-.051.31-.1.618-.161.927-.047.25-.119.634-.161.854s-.114.6-.163.852-.115.582-.147.735-.065.309-.076.345l-.018.066Zm-7.913,0h.715l.051-.316c.029-.174.084-.508.122-.742l.162-.971c.049-.3.125-.742.167-.985s.107-.619.145-.837a3.38,3.38,0,0,1,.088-.411l.017-.017h3.843l.021.021.02.02-.032.17c-.019.094-.072.382-.121.641s-.128.7-.178.972-.107.579-.162.868c-.039.2-.118.626-.175.941s-.1.591-.1.612v.037h1.436l.031-.187c.018-.1.046-.281.062-.4s.058-.38.093-.574.1-.577.145-.852.129-.749.177-1.044.123-.737.162-.971q.077-.442.16-.883c.047-.252.128-.675.175-.942s.123-.671.164-.9.115-.637.165-.912.116-.6.142-.714l.049-.213h-1.454l-.02.14c-.012.077-.046.292-.078.479s-.094.516-.129.735-.111.635-.16.927-.093.571-.136.857l-.049.328-1.067.021-1.067.021-.895-.021c-.491-.012-.9-.023-.9-.026a2.025,2.025,0,0,1,.037-.255c.032-.176.065-.352.1-.529q.069-.338.132-.677c.04-.218.087-.49.1-.6s.049-.3.074-.419.071-.365.1-.549.066-.355.078-.381l.018-.047h-1.443l-.047.258c-.024.141-.058.343-.074.449s-.07.442-.119.748-.122.764-.163,1.015l-.161,1.014q-.086.53-.179,1.059c-.052.29-.106.579-.16.868-.038.2-.111.587-.161.854s-.11.562-.165.842c-.04.195-.084.418-.093.5s-.059.314-.1.518-.076.393-.076.419v.047h.715Zm42.792.143h.281l.265-.043c.146-.023.331-.061.412-.084a2.07,2.07,0,0,0,.324-.132l.176-.094.153-.134.153-.134.16-.214a3.115,3.115,0,0,0,.177-.257l.016-.044-.015.147q-.015.147-.041.294c-.014.081-.035.236-.044.345l-.02.2h1.155v-.4l.088-.749c.047-.412.119-.961.158-1.217s.1-.63.134-.823.093-.545.136-.78.113-.645.161-.912.128-.69.174-.942.117-.641.161-.867.117-.624.167-.883.106-.54.162-.809c.04-.187.071-.348.071-.36v-.022h-1.259l-.019.187c-.011.1-.06.436-.107.742q-.087.545-.176,1.09c-.036.208-.07.418-.1.627l-.017.1-.049-.022c-.028-.011-.176-.053-.33-.094l-.28-.069-.383-.03-.382-.03-.323.03-.324.03-.293.075-.294.075-.28.137-.281.136-.206.152-.2.153-.178.188a4.212,4.212,0,0,0-.313.385l-.137.194-.16.332c-.086.188-.194.426-.238.539s-.116.364-.168.562l-.093.352-.044.457-.043.457.032.368.035.369.039.132c.021.073.068.2.1.288l.062.156.114.154.115.155.129.106.129.106.176.087a2.367,2.367,0,0,0,.362.138,3.116,3.116,0,0,0,.368.075c.1.013.308.025.463.027Zm.5-.835-.221.011-.15-.027a1.582,1.582,0,0,1-.293-.089l-.143-.061-.121-.1-.121-.1-.179-.344-.04-.187-.041-.187v-.765l.046-.339.048-.338.074-.235a2.387,2.387,0,0,0,.074-.271,1.491,1.491,0,0,1,.093-.235c.058-.126.117-.252.182-.374a3.09,3.09,0,0,1,.209-.336,3.02,3.02,0,0,1,.258-.294,2.03,2.03,0,0,1,.272-.215l.132-.082.232-.079.231-.08h.97l.281.078c.153.042.316.094.362.109l.083.032-.017.08c-.009.045-.044.24-.078.433s-.1.561-.148.823-.12.649-.164.868-.1.5-.134.617-.066.249-.1.374a2.441,2.441,0,0,1-.123.323,2.671,2.671,0,0,1-.173.3,1.683,1.683,0,0,1-.187.224,2.588,2.588,0,0,1-.26.2l-.161.106-.469.149-.221.012Zm-10.445.823.4-.012.25-.063.25-.064.161-.076a2.936,2.936,0,0,0,.325-.187,2.6,2.6,0,0,0,.306-.251,3.428,3.428,0,0,0,.261-.3.757.757,0,0,1,.125-.147,2.327,2.327,0,0,1-.033.3,4.5,4.5,0,0,0-.042.479v.187h1.08l.017-.418.016-.419.078-.544c.042-.3.11-.743.153-.986s.113-.655.159-.912.119-.663.162-.9l.08-.427v-.736l-.084-.172-.083-.17-.112-.109-.113-.109-.187-.094-.188-.093-.551-.123-.382-.029-.379-.028-.49.03c-.27.017-.649.05-.842.073l-.353.043h-.481l-.037.169c-.019.094-.072.313-.117.491a2.4,2.4,0,0,0-.075.331,2.031,2.031,0,0,0,.281-.064c.151-.041.475-.108.718-.15l.441-.076.4-.016.4-.017.512.094.171.084.172.084.093.143.094.142v.449l-.052.247-.051.247h-2.117l-.347.094a4.2,4.2,0,0,0-.467.155.712.712,0,0,1-.149.06,1.677,1.677,0,0,0-.253.139l-.225.139-.177.177a2.746,2.746,0,0,0-.275.324,2.915,2.915,0,0,0-.2.374l-.093.23-.045.255-.045.257v.539l.042.224.043.224.079.146a1.891,1.891,0,0,0,.179.263l.1.116.175.107.176.107.2.057c.11.031.281.069.375.084l.172.027.4-.011Zm.369-.822-.235.012-.156-.039a1.631,1.631,0,0,1-.29-.108l-.135-.068-.072-.086a1.27,1.27,0,0,1-.136-.208l-.062-.121-.013-.281-.012-.281.048-.172a2.912,2.912,0,0,1,.144-.365l.094-.192.178-.178.177-.176.188-.094.188-.094.236-.056.234-.055h1.472l.046.019.046.019-.039.232c-.022.127-.073.356-.115.51s-.114.375-.161.5-.087.231-.087.241a1.555,1.555,0,0,1-.107.2l-.108.181-.176.175a1.192,1.192,0,0,1-.2.176.539.539,0,0,0-.132.073l-.108.073-.237.076-.239.076-.235.012Zm-5.207.834h.324l.367-.044c.2-.023.468-.062.6-.088.154-.031.307-.066.458-.108a1.591,1.591,0,0,0,.249-.084,1.577,1.577,0,0,0,.078-.3c.029-.151.067-.355.083-.452a.775.775,0,0,0,.018-.187c0-.007-.027,0-.047.019a2.426,2.426,0,0,1-.32.135l-.28.106-.4.077-.4.078-.343-.012-.344-.012-.195-.067-.195-.067-.15-.132-.151-.131-.1-.187-.1-.182-.049-.243-.047-.244v-.632l.058-.383.059-.382.061-.206c.035-.113.073-.245.085-.294a2.785,2.785,0,0,1,.119-.309c.053-.121.148-.309.211-.417l.113-.2.14-.145.139-.145.149-.094.146-.094.188-.058a3.523,3.523,0,0,1,.41-.094l.221-.035.325.017.323.017.382.077.384.076.156.058c.086.032.158.058.163.058a1.651,1.651,0,0,0,.045-.243c.021-.134.058-.353.083-.488a1.234,1.234,0,0,0,.031-.257,1.641,1.641,0,0,0-.256-.04c-.133-.016-.5-.042-.8-.06l-.562-.032-.4.031-.4.03-.293.062-.294.061-.187.076a2.958,2.958,0,0,0-.339.167c-.077.048-.156.094-.232.151a3.915,3.915,0,0,0-.309.281l-.226.222-.126.187a5.187,5.187,0,0,0-.265.468l-.141.281-.107.31c-.06.169-.141.447-.187.616l-.076.31-.026.281-.028.281v.736l.029.214.027.214.094.22.087.22.1.159.1.158.162.159.161.16.172.094.17.094.226.063c.131.036.264.064.4.087a4.873,4.873,0,0,0,.5.03Zm-9.354,0h.323l.323-.03c.178-.016.468-.05.648-.075s.486-.082.683-.125l.359-.079.018-.133c.011-.072.051-.29.093-.483l.073-.35-.016-.016-.016-.015-.11.052c-.061.03-.249.1-.417.155l-.311.1-.323.063-.325.062H4519.1l-.176-.057a2.871,2.871,0,0,1-.318-.125l-.139-.069-.232-.211-.093-.158-.093-.158-.058-.2-.057-.2v-.736l.048-.328.053-.328.884-.042,1.637.012,1.636.009.049-.208c.028-.116.069-.354.093-.53l.043-.321v-.538l-.047-.2-.046-.2-.077-.133a1.737,1.737,0,0,0-.167-.235,1.339,1.339,0,0,0-.193-.177c-.059-.04-.172-.108-.252-.153l-.148-.077-.258-.062-.255-.062-.317-.03-.316-.031-.293.02-.294.019-.353.069-.353.067-.22.089a4.163,4.163,0,0,0-.411.2,2.986,2.986,0,0,0-.324.215c-.072.059-.2.174-.279.255a2.6,2.6,0,0,0-.269.323,4.293,4.293,0,0,0-.224.383c-.058.114-.131.272-.164.353s-.094.246-.137.368-.107.353-.145.515c-.044.2-.084.394-.117.592l-.046.3v.876l.044.188a3.416,3.416,0,0,0,.1.353,2.31,2.31,0,0,0,.133.294,1.71,1.71,0,0,0,.2.261,2.626,2.626,0,0,0,.268.238,2.076,2.076,0,0,0,.32.188l.174.078.239.059c.134.032.333.07.446.084s.349.028.528.031Zm.553-4.144c-.815,0-1.48-.006-1.48-.013s.035-.109.078-.227.117-.294.165-.391l.093-.176.195-.194.195-.194.188-.094a2.4,2.4,0,0,1,.308-.122,3.437,3.437,0,0,1,.412-.049l.294-.019.227.029.226.029.165.075.164.076.093.094a1.047,1.047,0,0,1,.13.175l.042.078.027.172.028.173-.032.286-.032.287Zm-8.753,6.739.017-.046a.43.43,0,0,0,.018-.134c0-.048.021-.222.047-.386s.085-.546.134-.843.118-.748.158-1,.073-.476.108-.713a.985.985,0,0,1,.053-.258.508.508,0,0,1,.094.14l.073.139.164.164.163.165.2.08.2.08.238.03.24.031.3-.019.3-.02.33-.085.329-.084.177-.08a3.813,3.813,0,0,0,.382-.214l.206-.134.188-.193a4.476,4.476,0,0,0,.333-.374,1.636,1.636,0,0,0,.137-.2.81.81,0,0,1,.085-.139,3.626,3.626,0,0,0,.208-.417c.069-.162.176-.454.239-.648l.114-.353.059-.306c.032-.168.075-.446.094-.617l.036-.312-.021-.265-.02-.265-.061-.265-.061-.264-.1-.2-.1-.2-.192-.2-.191-.2-.453-.235-.251-.06-.25-.06-.25-.019-.25-.019-.281.032-.28.032-.228.058-.228.058-.2.093a3.4,3.4,0,0,0-.352.187,1.735,1.735,0,0,0-.194.139.91.91,0,0,1-.118.093l-.077.051.055-.26c.03-.142.055-.274.055-.294v-.037h-1.078l-.093.6c-.053.328-.135.834-.187,1.123q-.16.965-.322,1.927c-.049.281-.13.732-.177,1s-.121.656-.16.868-.112.606-.162.881c-.06.324-.119.648-.181.972q-.086.455-.176.912c-.047.243-.094.468-.1.508l-.017.065h1.266Zm1.845-3.387-.16-.028-.161-.028-.162-.075-.163-.075-.114-.108-.114-.109-.066-.146a1.981,1.981,0,0,1-.1-.305l-.037-.158.015-.253.015-.254.075-.4c.057-.3.113-.607.167-.911.051-.281.125-.7.169-.922l.077-.407.169-.14a2.806,2.806,0,0,1,.326-.23l.16-.094.206-.063.205-.064.53-.031.215.046.216.046.152.07.152.07.129.128.128.128.067.136a1.8,1.8,0,0,1,.118.325l.051.187-.015.562-.015.562-.076.331c-.042.181-.119.459-.175.616l-.1.289-.123.233a3.754,3.754,0,0,1-.232.385,1.555,1.555,0,0,1-.212.24c-.067.058-.139.115-.21.169l-.109.08-.5.17-.491.029Z" transform="translate(-4248.51 2994.32)" fill="#fff"/><g transform="translate(178.52 0.96)"><path d="M4065.185-3016.473a6.18,6.18,0,0,1,1.986-.321,6.27,6.27,0,0,1,6.15,5.023l4.3-.877a10.67,10.67,0,0,0-10.451-8.538,10.553,10.553,0,0,0-3.376.549l1.39,4.164Z" transform="translate(-4056.511 3021.185)" fill="#fff"/><path d="M4018.864-2987.344l2.909-3.295a6.261,6.261,0,0,1-2.113-4.7,6.241,6.241,0,0,1,2.113-4.695l-2.909-3.284a10.642,10.642,0,0,0-3.6,7.989,10.657,10.657,0,0,0,3.6,7.988Z" transform="translate(-4015.267 3006.003)" fill="#fff"/><path d="M4073.268-2941.75a6.272,6.272,0,0,1-6.149,5.014,6.313,6.313,0,0,1-2-.321l-1.392,4.164a10.658,10.658,0,0,0,3.387.549,10.662,10.662,0,0,0,10.45-8.529l-4.306-.878Z" transform="translate(-4056.458 2953.674)" fill="#fff"/><path d="M4199.362-2991.084a3.805,3.805,0,0,1-2.735,1.1,3.723,3.723,0,0,1-1.977-.6l-1.426,2.27a6.479,6.479,0,0,0,3.369,1,6.529,6.529,0,0,0,4.649-1.848l-1.873-1.921Zm-2.581-9.252a6.515,6.515,0,0,0-6.606,6.406,6.45,6.45,0,0,0,1.053,3.65l11.786-5.042a6.515,6.515,0,0,0-6.231-5.015m-3.907,6.918a3.667,3.667,0,0,1-.026-.458,3.83,3.83,0,0,1,3.889-3.77,3.786,3.786,0,0,1,2.864,1.364Zm13.846-9.847v12.565l2.178.906-1.029,2.48-2.16-.9a2.416,2.416,0,0,1-1.062-.9,2.8,2.8,0,0,1-.42-1.555v-12.6Zm7.862,5.811a3.805,3.805,0,0,1,1.215-.187,3.829,3.829,0,0,1,3.752,3.065l2.626-.54a6.509,6.509,0,0,0-6.377-5.207,6.61,6.61,0,0,0-2.061.33l.844,2.544Zm-3.1,8.5,1.779-2a3.817,3.817,0,0,1-1.29-2.873,3.814,3.814,0,0,1,1.29-2.864l-1.779-2.005a6.5,6.5,0,0,0-2.2,4.877,6.477,6.477,0,0,0,2.2,4.867Zm8.072-4.1a3.837,3.837,0,0,1-3.752,3.065,3.856,3.856,0,0,1-1.216-.2l-.852,2.544a6.476,6.476,0,0,0,2.068.338,6.509,6.509,0,0,0,6.378-5.208l-2.626-.539Z" transform="translate(-4163.914 3005.952)" fill="#fff"/></g><g transform="translate(308.366 0.836)"><path d="M4896.22-3022.01h-5.063a10.631,10.631,0,0,0-7.756,3.12,10.64,10.64,0,0,0-3.1,7.762,10.8,10.8,0,0,0,10.857,10.7h5.065c5.886.028,11.259-4.81,11.259-10.7a11.006,11.006,0,0,0-3.357-7.793A11.006,11.006,0,0,0,4896.22-3022.01Zm-5.033,20.667a9.866,9.866,0,0,1-9.855-9.877,9.868,9.868,0,0,1,9.856-9.879,9.869,9.869,0,0,1,9.855,9.879,9.867,9.867,0,0,1-9.857,9.875Z" transform="translate(-4880.297 3022.013)" fill="#fff"/><path d="M4911.359-2983.39h0a6.271,6.271,0,0,0,4.012,5.842v-11.685A6.273,6.273,0,0,0,4911.359-2983.39Z" transform="translate(-4906.694 2994.153)" fill="#fff"/><path d="M4967.86-2989.23v11.687h0a6.272,6.272,0,0,0,4.012-5.844A6.269,6.269,0,0,0,4967.86-2989.23Z" transform="translate(-4954.716 2994.151)" fill="#fff"/></g><g transform="translate(111.242 2.522)"><path d="M3605.282-3008.616l-1,2.327h2.01Zm-11.573,1.443a.592.592,0,0,0,.3-.556.536.536,0,0,0-.306-.517,1.568,1.568,0,0,0-.691-.1h-1.794v1.3h1.77a1.4,1.4,0,0,0,.726-.122Zm-22.99-1.443-.991,2.327h1.988Zm46.161,14.916h-2.813v-1.253h2.8a.849.849,0,0,0,.59-.145.506.506,0,0,0,.174-.381.465.465,0,0,0-.179-.386.761.761,0,0,0-.513-.129c-1.367-.045-3.075.04-3.075-1.809,0-.842.562-1.739,2.091-1.739h2.9v-1.162h-2.7a3.125,3.125,0,0,0-1.823.478v-.478h-3.989a2.841,2.841,0,0,0-1.74.478v-.478h-7.124v.478a3.916,3.916,0,0,0-1.965-.478h-4.7v.478a3.437,3.437,0,0,0-2.054-.478h-5.258l-1.2,1.248-1.123-1.248h-7.854v8.151h7.705l1.24-1.267,1.168,1.267h4.75v-1.918h.468a5.118,5.118,0,0,0,2.029-.286v2.2h3.918v-2.125h.187c.241,0,.264.01.264.241v1.883h11.9a3.5,3.5,0,0,0,1.983-.522v.522h3.775a5.262,5.262,0,0,0,2.136-.374v-1.52a2.319,2.319,0,0,1-1.977.749Zm-24.158-1.925H3590.9v1.959h-2.832l-1.794-1.933-1.864,1.933h-5.772v-5.842h5.86l1.792,1.915,1.853-1.915h4.655c1.156,0,2.456.307,2.456,1.925s-1.264,1.958-2.537,1.958Zm8.741-.265a1.637,1.637,0,0,1,.242,1.066v1.158h-1.463v-.731c0-.351.036-.872-.235-1.144a1.46,1.46,0,0,0-1.07-.258h-1.557v2.133h-1.459v-5.843h3.364a3.767,3.767,0,0,1,1.753.275,1.36,1.36,0,0,1,.749,1.3,1.639,1.639,0,0,1-1.03,1.553,1.582,1.582,0,0,1,.714.491Zm6.019-2.409h-3.413v1.063h3.329v1.192h-3.329v1.162l3.413.006v1.212h-4.867v-5.842h4.867Zm3.744,4.634h-2.838v-1.252h2.826a.884.884,0,0,0,.595-.145.51.51,0,0,0,.172-.381.5.5,0,0,0-.178-.387.787.787,0,0,0-.518-.129c-1.363-.045-3.071.04-3.071-1.808,0-.848.556-1.739,2.084-1.739h2.922v1.243h-2.673a1.018,1.018,0,0,0-.583.107.441.441,0,0,0-.219.419.449.449,0,0,0,.318.435,1.721,1.721,0,0,0,.567.066l.784.021a2.426,2.426,0,0,1,1.664.468,1.59,1.59,0,0,1,.436,1.238C3613.517-2994.252,3612.7-2993.665,3611.227-2993.665Zm-11.3-4.539a1.5,1.5,0,0,0-.695-.105h-1.794v1.31h1.77a1.453,1.453,0,0,0,.719-.121.619.619,0,0,0,.3-.562.551.551,0,0,0-.3-.526Zm16.28-.106a1.039,1.039,0,0,0-.589.106.45.45,0,0,0-.212.42.442.442,0,0,0,.319.435,1.753,1.753,0,0,0,.562.066l.79.021a2.376,2.376,0,0,1,1.654.468.76.76,0,0,1,.135.144v-1.662h-2.656Zm-23.433,0h-1.9v1.488h1.883c.562,0,.908-.266.908-.771s-.362-.718-.886-.718Zm-12.679,0v1.062h3.2v1.191h-3.2v1.163h3.583l1.664-1.715-1.591-1.7Zm9.355,4.085v-4.68l-2.237,2.3,2.237,2.379Zm-9.232-9.379v1.006h12.173l-.006-2.129h.236c.165.006.212.02.212.281v1.85h6.3v-.5a5.177,5.177,0,0,0,2.339.5h2.649l.567-1.3h1.257l.554,1.3h5.1v-1.232l.772,1.231h4.091v-8.142h-4.048v.962l-.567-.962h-4.154v.962l-.519-.962h-5.611a5.222,5.222,0,0,0-2.434.476v-.476h-3.872v.475a2.475,2.475,0,0,0-1.646-.475h-14.145l-.949,2.1-.975-2.1h-4.455v.962l-.49-.962h-3.8l-1.764,3.873v3.1l2.609-5.841h2.165l2.477,5.531v-5.531h2.378l1.906,3.962,1.752-3.962h2.426v5.841h-1.5l-.006-4.574-2.112,4.574h-1.276l-2.118-4.578v4.578h-2.962l-.562-1.3h-3.033l-.562,1.3h-1.581v1.176h2.489l.562-1.3h1.257l.562,1.3h4.9v-.993l.437,1h2.543l.437-1.012Zm19.187-5.327a3.036,3.036,0,0,1,2.213-.681h1.41v1.251h-1.381a1.442,1.442,0,0,0-1.123.346,1.874,1.874,0,0,0-.419,1.324,1.971,1.971,0,0,0,.4,1.372,1.449,1.449,0,0,0,1.016.3h.655l2.053-4.592h2.184l2.466,5.521v-5.521h2.218l2.562,4.067v-4.067h1.491v5.84h-2.065l-2.761-4.385v4.385h-2.967l-.567-1.3h-3.026l-.55,1.3h-1.705a3.157,3.157,0,0,1-2.113-.647,2.865,2.865,0,0,1-.778-2.229,3.023,3.023,0,0,1,.785-2.284Zm-2.995-.681h1.48v5.84H3596.4Zm-6.7,0h3.352a3.573,3.573,0,0,1,1.764.28,1.353,1.353,0,0,1,.738,1.293,1.649,1.649,0,0,1-1.03,1.558,1.681,1.681,0,0,1,.721.491,1.626,1.626,0,0,1,.241,1.072v1.147h-1.47l0-.736a1.69,1.69,0,0,0-.23-1.138,1.47,1.47,0,0,0-1.062-.251h-1.563v2.125H3589.7v-5.84Zm-5.873,0h4.867v1.216h-3.409v1.054h3.328v1.2h-3.328v1.166h3.409v1.207h-4.867Z" transform="translate(-3567.036 3010.747)" fill="#fff"/></g></g><g transform="translate(665.507 1050.672)"><path d="M91.93,146.756V133.125a.121.121,0,0,1,.125-.125h2.617a.125.125,0,0,1,.125.125v4.912h.04a3.565,3.565,0,0,1,2.892-1.27c2.061,0,2.722,1.347,2.722,3.134v6.856a.125.125,0,0,1-.125.125H97.709a.125.125,0,0,1-.125-.125v-6.6c0-.774-.807-1.012-1.323-1.012a1.4,1.4,0,0,0-1.464,1.307v6.307a.125.125,0,0,1-.125.125H92.055A.125.125,0,0,1,91.93,146.756Z" transform="translate(-64.676 -121.641)" fill="#fff"/><path d="M141.775,145.856v-4.7h-1.21a.125.125,0,0,1-.125-.125v-1.686a.125.125,0,0,1,.085-.117l1.613-.472.859-2.69a.125.125,0,0,1,.089-.069H144.5a.121.121,0,0,1,.125.125v2.654h2.117a.125.125,0,0,1,.125.125v2.154a.121.121,0,0,1-.125.121h-2.117v4.38c0,.456.258.734.891.734h1.21a.125.125,0,0,1,.125.125v1.891a.129.129,0,0,1-.081.117,4.84,4.84,0,0,1-2.016.444A2.694,2.694,0,0,1,141.775,145.856Z" transform="translate(-93.623 -123.431)" fill="#fff"/><path d="M243.4,145.832v-4.7h-1.21a.125.125,0,0,1-.125-.125v-1.686a.125.125,0,0,1,.085-.117l1.613-.472.859-2.69a.125.125,0,0,1,.117-.085h1.411a.121.121,0,0,1,.125.125v2.654H248.4a.125.125,0,0,1,.125.125v2.154a.121.121,0,0,1-.125.121H246.28v4.4c0,.456.258.734.891.734h1.21a.125.125,0,0,1,.125.125v1.891a.129.129,0,0,1-.081.117,4.839,4.839,0,0,1-2.016.444A2.7,2.7,0,0,1,243.4,145.832Z" transform="translate(-154.267 -123.407)" fill="#fff"/><path d="M160.68,152.3V142.62a.125.125,0,0,1,.125-.125h2.363a.125.125,0,0,1,.117.085l.274.984h.04a3.533,3.533,0,0,1,2.875-1.27,2.339,2.339,0,0,1,2.464,1.613h.081a3.476,3.476,0,0,1,3.109-1.613c2.061,0,2.722,1.347,2.722,3.133v6.856a.125.125,0,0,1-.125.125H172.1a.125.125,0,0,1-.125-.125v-6.541a1.147,1.147,0,0,0-1.246-1.073,1.453,1.453,0,0,0-1.524,1.25v6.38a.121.121,0,0,1-.125.125h-2.633a.125.125,0,0,1-.121-.125v-6.557c0-.774-.774-1.073-1.339-1.073a1.424,1.424,0,0,0-1.432,1.371V152.3a.125.125,0,0,1-.121.125h-2.625a.125.125,0,0,1-.129-.125Z" transform="translate(-105.7 -127.184)" fill="#fff"/><path d="M199.2,144.725v-1.8a.129.129,0,0,1,.1-.121,20.228,20.228,0,0,1,3.831-.456c2.537,0,4.033.613,4.033,3.351v6.638a.125.125,0,0,1-.125.125h-2.5a.121.121,0,0,1-.117-.093l-.27-.98h.113a3.139,3.139,0,0,1-2.823,1.27,2.862,2.862,0,0,1-2.855-3.154c0-2.577,1.883-3.093,3.291-3.093h2.42v-.653c0-.807-.6-.988-2.9-.988-.972,0-2.016.077-2.061.077A.129.129,0,0,1,199.2,144.725Zm5.089,3.452h-1.573c-.835,0-1.375.319-1.375,1.21,0,.96.69,1.178,1.351,1.178a1.532,1.532,0,0,0,1.613-1.613v-.807Z" transform="translate(-128.316 -127.22)" fill="#fff"/><path d="M224,152.31v-9.679a.125.125,0,0,1,.121-.125h2.339a.121.121,0,0,1,.121.1l.278,1.5h.04a3.38,3.38,0,0,1,3.061-1.8.125.125,0,0,1,.125.125v2.694a.125.125,0,0,1-.125.125h-.669c-1.8,0-2.42.722-2.42,1.613v5.428a.125.125,0,0,1-.121.125h-2.617a.125.125,0,0,1-.133-.109Z" transform="translate(-143.484 -127.195)" fill="#fff"/><path d="M116.08,147.5c0-3.154,1.23-5.154,4.718-5.154s4.739,2.016,4.739,5.154-1.23,5.154-4.739,5.154S116.08,150.678,116.08,147.5Zm3.1,0c0,1.706.25,2.75,1.613,2.75s1.641-1.044,1.641-2.75-.254-2.734-1.641-2.734S119.177,145.8,119.177,147.5Z" transform="translate(-79.087 -127.22)" fill="#fff"/><path d="M46.219,124.133a20.477,20.477,0,0,0-3.049-10.719c-.06-.093-.161-.056-.141.04.149.548.186,1.545-.686,1.484-1.549-.1.052-3.42-3.347-5.719a.073.073,0,0,0-.113.089c.234.444.371,1.827-.165,2.3-.432.379-1.21.278-1.988-.968a5.384,5.384,0,0,1,.077-5.678c.065-.1-.024-.145-.1-.121-4.678,1.545-5.614,7.061-6.61,9.07-.165.339-.311.512-.6.5-.851-.056-.238-1.875.056-2.508a.073.073,0,0,0-.117-.081,19.87,19.87,0,0,0-5,10.788c0-.093-.04.331-.065.641h0a2.835,2.835,0,0,1-.024.367v.44a10.947,10.947,0,1,0,21.894.181A.2.2,0,0,1,46.219,124.133Zm-10.985,5.085a5.077,5.077,0,1,1,5.106-5.033A5.077,5.077,0,0,1,35.234,129.218Z" transform="translate(-24.349 -104.833)" fill="#fff"/></g><g transform="translate(1122.504 1058.714)"><path d="M764.745,1333.94h.441v11.707h-.441Zm.882,0h.441v11.707h-.441Zm2.647,0h.441v11.707h-.441Zm8.582,0h.441v11.707h-.441Zm2.869,0h.441v11.707h-.441Zm2.782,0h.441v11.707h-.441Zm.717,0h.441v11.707h-.441Zm.718,0h.441v11.707h-.441Zm.807,0h.441v11.707h-.441Zm.807,0H786v11.707h-.441Zm2.243,0h.441v11.707H787.8Zm5.561,0h.441v11.707h-.441Zm5.8,0h.441v11.707h-.441Zm1.587,0h.441v11.707h-.441Zm1.147,0h.441v11.707h-.441Zm.706,0h.441v11.707H802.6Zm-31.414,0h.441v11.707h-.441Zm-4.412,0h.794v11.707h-.794Zm5.239,0h.794v11.707h-.794Zm3.679,0h.794v11.707h-.794Zm1.883,0h.794v11.707h-.794Zm2.96,0h.794v11.707h-.794Zm8.439,0h1.235v11.707h-1.235Zm1.613,0h.971v11.707h-.971Zm1.7,0h.794v11.707h-.794Zm2.25,0h1.324v11.707h-1.324Zm2.592,0h1.324v11.707H797.13Zm-27.974,0h1.587v11.707h-1.587Zm4.115,0h1.235v11.707h-1.235Z" transform="translate(-764.745 -1333.94)" fill="#fff"/><path d="M802.576,2353.063v-6.7h2.514a3.129,3.129,0,0,1,1.232.2,1.586,1.586,0,0,1,.726.627,1.646,1.646,0,0,1,.263.885,1.519,1.519,0,0,1-.233.809,1.66,1.66,0,0,1-.7.612,1.753,1.753,0,0,1,.936.608,1.627,1.627,0,0,1,.326,1.015,1.957,1.957,0,0,1-.2.875,1.693,1.693,0,0,1-.493.625,2.052,2.052,0,0,1-.734.331,4.443,4.443,0,0,1-1.08.112Zm.888-3.884h1.449a3.247,3.247,0,0,0,.843-.078.941.941,0,0,0,.509-.333.962.962,0,0,0,.171-.585,1.076,1.076,0,0,0-.16-.587.807.807,0,0,0-.453-.348,3.837,3.837,0,0,0-1.019-.094h-1.339Zm0,3.094h1.668a3.809,3.809,0,0,0,.6-.032,1.445,1.445,0,0,0,.512-.187.972.972,0,0,0,.338-.375,1.164,1.164,0,0,0,.133-.562,1.113,1.113,0,0,0-.192-.655,1.017,1.017,0,0,0-.533-.388,3.319,3.319,0,0,0-.98-.112h-1.55Zm5.469-2.473a3.641,3.641,0,0,1,.9-2.613,3.048,3.048,0,0,1,2.313-.944,3.211,3.211,0,0,1,1.673.444,2.892,2.892,0,0,1,1.135,1.236,4.019,4.019,0,0,1,.391,1.8,3.954,3.954,0,0,1-.411,1.823,2.812,2.812,0,0,1-1.165,1.217,3.325,3.325,0,0,1-1.627.414,3.165,3.165,0,0,1-1.69-.456,2.941,2.941,0,0,1-1.13-1.249A3.78,3.78,0,0,1,808.933,2349.8Zm.914.014a2.686,2.686,0,0,0,.655,1.909,2.264,2.264,0,0,0,3.276-.008,2.846,2.846,0,0,0,.647-2,3.429,3.429,0,0,0-.272-1.429,2.123,2.123,0,0,0-.809-.947,2.189,2.189,0,0,0-1.2-.336,2.267,2.267,0,0,0-1.62.647,2.888,2.888,0,0,0-.681,2.159Zm6.947,3.249v-6.7h.886v5.91h3.3v.791Zm5.607,0v-6.7h4.845v.791h-3.959v2.052h3.707v.786h-3.707v2.28H827.4v.791Zm8.277,0v-5.909h-2.208v-.791h5.311v.791h-2.217v5.909Zm3.92-3.263a3.642,3.642,0,0,1,.9-2.613,3.048,3.048,0,0,1,2.313-.944,3.212,3.212,0,0,1,1.673.444,2.893,2.893,0,0,1,1.135,1.236,4.019,4.019,0,0,1,.39,1.8,3.95,3.95,0,0,1-.411,1.823,2.81,2.81,0,0,1-1.169,1.217,3.331,3.331,0,0,1-1.627.414,3.17,3.17,0,0,1-1.692-.457,2.939,2.939,0,0,1-1.127-1.249A3.78,3.78,0,0,1,834.6,2349.8Zm.914.014a2.686,2.686,0,0,0,.655,1.909,2.272,2.272,0,0,0,3.282-.007,2.846,2.846,0,0,0,.647-2,3.434,3.434,0,0,0-.281-1.428,2.119,2.119,0,0,0-.809-.946,2.19,2.19,0,0,0-1.2-.336,2.27,2.27,0,0,0-1.62.646,2.89,2.89,0,0,0-.68,2.159Z" transform="translate(-802.005 -2330.962)" fill="#fff"/></g></g></svg>