<?xml version="1.0" encoding="UTF-8"?>
<svg xmlns="http://www.w3.org/2000/svg" xmlns:xlink="http://www.w3.org/1999/xlink" height="226.8" preserveAspectRatio="xMidYMid meet" version="1.1" viewBox="106.3 99.2 214.3 226.8" width="214.3" zoomAndPan="magnify">
 <g id="surface1">
  <g id="change1_1"><path d="m227.33 286.44v21.08c1.5-0.1 2.99-0.22 4.46-0.39 1.76 7.76 4.37 18.22 5.85 18.85h25.5s4.92-0.92 10.96-34.35c0.14-1.77 0.01-3.5-0.33-5.19h-46.44" fill="#e2676d"/></g>
  <g id="change1_2"><path d="m165.91 286.44v21.08c1.5-0.1 2.99-0.22 4.46-0.39 1.75 7.76 4.36 18.22 5.85 18.85h25.5s4.92-0.92 10.96-34.35c0.14-1.77 0.01-3.5-0.34-5.19h-46.43" fill="#e2676d"/></g>
  <g id="change2_1"><path d="m125.34 220.25c-4.87-3.68-1.61-20.06 4.42-16.54 6.53 3.81-4.42 16.54-4.42 16.54zm4.42 2.72s14.17-19.15 0-23.45c-6.35-1.93-10.42 3.96-11.22 10.19-0.79 6.19 3.06 12.13 3.06 12.13-9.64 4.04-15.3-6.85-15.3-6.85 3.4 18.2 19.04 13.08 19.04 13.08 4.42 9.18 11.56 7.48 11.56 7.48v-6.12c-5.44-1.7-7.14-6.46-7.14-6.46" fill="#f7938e"/></g>
  <g id="change2_2"><path d="m317.54 266.93s3.06-29.57 0-31.27c-3.06-1.71-4.08 3.18-4.08 3.18l-16.59-9.13c-0.63-4.91-1.84-9.66-3.58-14.22 0 0 7.17-42.83 0-42.83-6.02-0.01-17.72 5.56-26.31 10.12-14-9.73-31.81-15.56-51.21-15.56-45.06 0-81.59 31.46-81.59 70.26 0 20.37 10.07 38.71 26.16 51.54 6.24 35.99 11.41 36.96 11.41 36.96h25.5c1.5-0.64 4.15-11.3 5.9-19.08 4.12 0.55 8.33 0.84 12.62 0.84 3.67 0 7.28-0.21 10.81-0.61 1.75 7.76 4.37 18.22 5.85 18.85h25.5s4.92-0.92 10.96-34.35c0 0 47.61-11.66 48.65-24.7" fill="#f7938e"/></g>
  <g id="change3_1"><path d="m292.61 183.88l-12.58 11.39 9.52 14.44z" fill="#faba8a"/></g>
  <g id="change4_1"><path d="m290.58 229.34c0 3.5-1.91 6.34-4.26 6.34-2.36 0-4.27-2.84-4.27-6.34s1.91-6.34 4.27-6.34c2.35 0 4.26 2.84 4.26 6.34" fill="#663132"/></g>
  <g id="change5_1"><path d="m316.63 269.7c-28.98 3.44-139.51 11.7-177.84-55.55-2.98 7.3-4.61 15.15-4.61 23.33 0 20.37 10.07 38.71 26.16 51.54 6.24 35.99 11.41 36.96 11.41 36.96h25.5c1.5-0.64 4.15-11.3 5.9-19.08 4.12 0.55 8.33 0.84 12.62 0.84 3.67 0 7.28-0.21 10.81-0.61 1.75 7.76 4.37 18.22 5.85 18.85h25.5s4.92-0.92 10.96-34.35c0 0 41.04-10.06 47.74-21.93" fill="#f08585"/></g>
  <path d="m1965.1 2462s185.8 54.4 430.6 0" fill="none" stroke="#cc494b" stroke-miterlimit="10" stroke-width="47.596" transform="matrix(.1 0 0 -.1 0 425.2)"/>
  <g id="change6_1"><path d="m234.21 160.26c0 8.93-7.24 16.17-16.17 16.17s-16.17-7.24-16.17-16.17c0-8.94 7.24-16.17 16.17-16.17s16.17 7.23 16.17 16.17" fill="#f68f34"/></g>
  <g id="change7_1"><path d="m230.57 160.26c0 6.92-5.61 12.53-12.53 12.53s-12.53-5.61-12.53-12.53 5.61-12.54 12.53-12.54 12.53 5.62 12.53 12.54" fill="#fabb34"/></g>
  <path d="m2222.3 2691.9s-2.3 26.8-37.6 29.4c-28.1 2.1-44.9-7.8-47.9-26.6 0 0-4-26.8 12.8-35.4 19.7-10.3 74.4-11.6 75-47.9 0 0 2.2-32.3-42.8-32.3 0 0-43.4-1.2-45.6 25.9" fill="none" stroke="#f68f34" stroke-linecap="round" stroke-miterlimit="10" stroke-width="20.768" transform="matrix(.1 0 0 -.1 0 425.2)"/>
  <path d="m2161.7 2744.7v-24.9" fill="none" stroke="#f68f34" stroke-linecap="round" stroke-miterlimit="10" stroke-width="20.768" transform="matrix(.1 0 0 -.1 0 425.2)"/>
  <path d="m2193.4 2744.7v-24.9" fill="none" stroke="#f68f34" stroke-linecap="round" stroke-miterlimit="10" stroke-width="20.768" transform="matrix(.1 0 0 -.1 0 425.2)"/>
  <path d="m2164.5 2579.1v-24.8" fill="none" stroke="#f68f34" stroke-linecap="round" stroke-miterlimit="10" stroke-width="20.768" transform="matrix(.1 0 0 -.1 0 425.2)"/>
  <path d="m2196.2 2579.1v-24.8" fill="none" stroke="#f68f34" stroke-linecap="round" stroke-miterlimit="10" stroke-width="20.768" transform="matrix(.1 0 0 -.1 0 425.2)"/>
  <g id="change6_2"><path d="m257.8 131.55c0 8.93-7.24 16.17-16.17 16.17s-16.17-7.24-16.17-16.17 7.24-16.17 16.17-16.17 16.17 7.24 16.17 16.17" fill="#f68f34"/></g>
  <g id="change7_2"><path d="m254.16 131.55c0 6.93-5.61 12.54-12.53 12.54s-12.53-5.61-12.53-12.54c0-6.92 5.61-12.53 12.53-12.53s12.53 5.61 12.53 12.53" fill="#fabb34"/></g>
  <path d="m2458.2 2978.9s-2.3 26.8-37.6 29.4c-28.1 2.1-44.9-7.8-47.9-26.6 0 0-4-26.8 12.8-35.4 19.7-10.2 74.4-11.6 75-47.9 0 0 2.2-32.3-42.8-32.3 0 0-43.4-1.2-45.6 25.9" fill="none" stroke="#f68f34" stroke-linecap="round" stroke-miterlimit="10" stroke-width="20.768" transform="matrix(.1 0 0 -.1 0 425.2)"/>
  <path d="m2397.6 3031.6v-24.8" fill="none" stroke="#f68f34" stroke-linecap="round" stroke-miterlimit="10" stroke-width="20.768" transform="matrix(.1 0 0 -.1 0 425.2)"/>
  <path d="m2429.3 3031.6v-24.8" fill="none" stroke="#f68f34" stroke-linecap="round" stroke-miterlimit="10" stroke-width="20.768" transform="matrix(.1 0 0 -.1 0 425.2)"/>
  <path d="m2400.4 2866.1v-24.8" fill="none" stroke="#f68f34" stroke-linecap="round" stroke-miterlimit="10" stroke-width="20.768" transform="matrix(.1 0 0 -.1 0 425.2)"/>
  <path d="m2432.1 2866.1v-24.8" fill="none" stroke="#f68f34" stroke-linecap="round" stroke-miterlimit="10" stroke-width="20.768" transform="matrix(.1 0 0 -.1 0 425.2)"/>
  <g id="change6_3"><path d="m223.26 115.38c0 8.93-7.24 16.17-16.17 16.17s-16.16-7.24-16.16-16.17 7.23-16.165 16.16-16.165 16.17 7.235 16.17 16.165" fill="#f68f34"/></g>
  <g id="change7_3"><path d="m219.62 115.38c0 6.92-5.6 12.54-12.53 12.54-6.92 0-12.53-5.62-12.53-12.54s5.61-12.53 12.53-12.53c6.93 0 12.53 5.61 12.53 12.53" fill="#fabb34"/></g>
  <path d="m2112.8 3140.6s-2.3 26.8-37.6 29.4c-28.1 2.2-44.9-7.8-47.9-26.6 0 0-3.9-26.8 12.8-35.4 19.7-10.3 74.4-11.6 75-47.9 0 0 2.2-32.3-42.8-32.3 0 0-43.3-1.2-45.5 26" fill="none" stroke="#f68f34" stroke-linecap="round" stroke-miterlimit="10" stroke-width="20.768" transform="matrix(.1 0 0 -.1 0 425.2)"/>
  <path d="m2052.2 3193.4v-24.9" fill="none" stroke="#f68f34" stroke-linecap="round" stroke-miterlimit="10" stroke-width="20.768" transform="matrix(.1 0 0 -.1 0 425.2)"/>
  <path d="m2083.9 3193.4v-24.9" fill="none" stroke="#f68f34" stroke-linecap="round" stroke-miterlimit="10" stroke-width="20.768" transform="matrix(.1 0 0 -.1 0 425.2)"/>
  <path d="m2055.1 3027.8v-24.8" fill="none" stroke="#f68f34" stroke-linecap="round" stroke-miterlimit="10" stroke-width="20.768" transform="matrix(.1 0 0 -.1 0 425.2)"/>
  <path d="m2086.8 3027.8v-24.8" fill="none" stroke="#f68f34" stroke-linecap="round" stroke-miterlimit="10" stroke-width="20.768" transform="matrix(.1 0 0 -.1 0 425.2)"/>
 </g>
</svg>